<svg width="15" height="14" viewBox="0 0 15 14" fill="none" xmlns="http://www.w3.org/2000/svg">
<path d="M12.6159 0H1.41594C0.645938 0 0.0159378 0.63 0.0159378 1.4V12.6C0.0159378 13.37 0.645938 14 1.41594 14H12.6159C13.3859 14 14.0159 13.37 14.0159 12.6V1.4C14.0159 0.63 13.3859 0 12.6159 0ZM4.21594 11.9H2.11594V5.6H4.21594V11.9ZM3.16594 4.41C2.46594 4.41 1.90594 3.85 1.90594 3.15C1.90594 2.45 2.46594 1.89 3.16594 1.89C3.86594 1.89 4.42594 2.45 4.42594 3.15C4.42594 3.85 3.86594 4.41 3.16594 4.41ZM11.9159 11.9H9.81594V8.19C9.81594 7.63003 9.32594 7.14 8.76594 7.14C8.20594 7.14 7.71594 7.63003 7.71594 8.19V11.9H5.61594V5.6H7.71594V6.44C8.06594 5.88 8.83594 5.46 9.46594 5.46C10.7959 5.46 11.9159 6.58 11.9159 7.91V11.9Z" fill="white"/>
</svg>
