<svg width="21" height="18" viewBox="0 0 21 18" fill="none" xmlns="http://www.w3.org/2000/svg">
<path d="M20.0159 2.79875C19.2722 3.125 18.4797 3.34125 17.6534 3.44625C18.5034 2.93875 19.1522 2.14125 19.4572 1.18C18.6647 1.6525 17.7897 1.98625 16.8572 2.1725C16.1047 1.37125 15.0322 0.875 13.8622 0.875C11.5922 0.875 9.76469 2.7175 9.76469 4.97625C9.76469 5.30125 9.79219 5.61375 9.85969 5.91125C6.45094 5.745 3.43469 4.11125 1.40844 1.6225C1.05469 2.23625 0.847186 2.93875 0.847186 3.695C0.847186 5.115 1.57844 6.37375 2.66844 7.1025C2.00969 7.09 1.36344 6.89875 0.815936 6.5975C0.815936 6.61 0.815936 6.62625 0.815936 6.6425C0.815936 8.635 2.23719 10.29 4.10094 10.6712C3.76719 10.7625 3.40344 10.8062 3.02594 10.8062C2.76344 10.8062 2.49844 10.7913 2.24969 10.7362C2.78094 12.36 4.28844 13.5538 6.08094 13.5925C4.68594 14.6838 2.91469 15.3412 0.997186 15.3412C0.660936 15.3412 0.338436 15.3263 0.0159359 15.285C1.83219 16.4563 3.98469 17.125 6.30594 17.125C13.8509 17.125 17.9759 10.875 17.9759 5.4575C17.9759 5.27625 17.9697 5.10125 17.9609 4.9275C18.7747 4.35 19.4584 3.62875 20.0159 2.79875Z" fill="white"/>
</svg>
