<svg xmlns="http://www.w3.org/2000/svg" width="470" height="470" viewBox="0 0 5000 5000"><path data-name="Заливка цветом 1" d="M2470 54h77c12.48 0 28.24-1.329 39 1 11.6 2.513 26.64-1.244 37 1h23c15.48 3.4 34.89.707 50 4l25 1c22.92 5.1 49.54 3.939 72 9l33 3c30.25 7 64.36 6.9 94 14l50 7c48.63 12.166 100.11 15.711 147 30 40.67 12.393 81.88 21.6 122 35 72.46 24.2 143.09 51.655 210 81 77.95 34.185 157.89 68.281 228 111 12.8 7.8 26.23 12.206 39 20 37.66 22.993 77.33 43.611 114 68 86.74 57.692 167.37 121.592 250 183 5.08 3.776 8.95 10.237 14 14 33.2 24.752 59.25 57.249 92 82 8.74 6.605 15 16.2 24 23l27 28c14.94 11.29 25.91 25.913 39 39 13.48 13.48 27.35 25.589 39 41 6.34 8.39 16.65 14.581 23 23 25.46 33.741 54.96 63.5 80 98 4.52 6.227 11.48 11.739 16 18 21.6 29.95 45.5 58.46 66 89 49.38 73.56 96.3 148.44 143 225 16.94 27.78 31.57 58.52 45 89 15.72 35.67 35.23 71.8 51 108 17.83 40.93 32.66 81.17 50 123 44.46 107.24 73.66 225.34 107 344 9.72 34.59 13.16 71.24 22 106l3 23c10.04 40.49 9.5 86.89 19 129 3.62 16.05 1.65 32.75 5 48q1.995 31.5 4 63v27c2.76 12.88 1 31.34 1 46s1.78 33.13-1 46c-3.75 17.34 2.48 38.91-1 55v36c0 12.78.56 29.19-2 41-3.19 14.71.89 30.66-2 44l-3 63c-2.66 12.05-.1 25.95-3 39-8.37 37.63-5.45 79.62-14 116q-1.005 10.5-2 21c-10.46 43.12-12.1 88.71-24 131-10.06 35.73-16.44 74.12-27 109-3.33 11-3.45 21.08-7 32-12.28 37.72-19.39 77.18-32 115-19.11 57.31-37.68 114.27-61 168-25.86 59.57-52.75 119.91-82 176-8.28 15.87-13.79 31.86-23 47-39.62 65.14-76.13 131.7-118 195-31.8 48.07-64.3 95.79-97 143-28.32 40.89-65.16 75.5-95 115-12.05 15.94-28.75 28.79-41 45q-6.495 6-13 12a268.736 268.736 0 00-20 23q-10.005 9.495-20 19c-8.03 10.62-18.31 18.23-27 28-6.9 7.75-12.61 14.66-21 21q-6 6.495-12 13c-11 11-22.53 22.58-35 32q-7.995 8.505-16 17c-23.14 17.51-41.94 40.66-65 58-18.78 14.12-35.93 29.1-55 43-6.53 4.76-12.34 12.37-19 17-40.11 27.87-78.03 57.51-119 85-12.74 8.55-25.23 19.43-38 28-26.45 17.75-53.57 34.53-80 52-41 27.1-85.99 48.41-128 74-11.94 7.27-25 10.71-37 18-20.76 12.61-43.87 22.81-67 33-28.14 12.4-57.32 27.51-86 40-62.21 27.1-129.09 50.14-195 72-60.15 19.94-121.06 35.58-183 53-38 10.68-77.27 15.51-115 26-43.15 12-90.26 12.8-135 23q-78.495 7.005-157 14c-18.09 3.95-39.48-.81-57 3h-21c-18.45.03-49.54-1.8-67 2-11.08 2.41-52.25 1.11-62-1-16.06-3.47-36.19 2.2-51-1q-25.005-.495-50-1c-10.91-2.4-23.99.64-36-2-30.8-6.78-67.91-3.41-98-10q-7.995.495-16 1c-2.52-.66-6.23-3.28-9-4l-74-9c-17.22-4.18-36.04-4.38-54-9-60.42-15.54-124.46-22.57-182-40l-40-9c-57.58-18.74-117.77-30.69-172-53-53.97-22.2-107.9-42.68-161-66-27.56-12.1-55.74-27-83-39-137.57-60.55-259.27-142.09-377-223-9.99-6.87-19.05-17.1-29-24-33.975-23.58-63.847-50.8-97-75-12.487-9.11-22.623-22.78-35-32-43.881-32.69-81.623-73.62-120-112-23.119-23.12-51.321-45.96-71-72q-11.5-10.995-23-22c-19.869-26.27-46.376-47.63-66-74-30.267-40.67-62.21-79.61-92-121-11.424-15.87-25.89-30.81-37-47-26.332-38.37-52.246-77.17-78-116-42.931-64.72-79.247-136.66-112-211-18.17-41.24-39.848-82.34-58-124-25.339-58.15-45.554-119.05-68-180-14.426-39.17-23.167-80.26-36-120-5.649-17.49-6.61-34.27-12-52-16.5-54.28-23.539-114.16-38-171-5.753-22.61-6.612-46.16-12-68l-12-84-9-107-1-42c-3.069-14.28-2-32.19-2-48v-17c-3.138-14.7-1-35.48-1-52 0-13.72-1.586-31.04 1-43v-18c0-16.3-1.251-35.98 2-51v-23l3-59c4.264-19.35.552-42.04 5-62 2.856-12.81.88-27.17 4-41l16-123c8.621-35.49 10.2-72.48 20-107 26.4-93.02 46.114-186.51 78-273 9.468-25.68 14.761-50.22 25-75 19.689-47.65 38.441-95.32 59-142 15.318-34.78 34.741-69.33 50-104 15.726-35.73 32.528-70.07 52-102 8.307-13.62 13.367-27.74 22-41 29.427-45.19 57.98-91.26 88-136 23.053-34.36 49.681-66.52 74-100 2.591-3.57 7.406-6.43 10-10 34.409-47.306 76.307-87.412 111-134 10.307-13.842 24.387-24.942 35-39l16-15c11.563-15.3 26.552-27.554 40-41 32.031-32.028 63.533-66.611 100-94 6.906-5.187 12.045-13.815 19-19 28.8-21.471 54.165-46.4 83-68 7.658-5.737 14.276-14.361 22-20 23.87-17.426 46.16-36.844 70-54 47.37-34.092 96.1-66.623 145-99 27.44-18.165 56.71-31.717 85-49 71.97-43.97 151.94-83.119 232-118 42.61-18.563 86.87-33.308 130-51 30.07-12.334 60.59-19.524 92-30 44.68-14.9 91.9-28.121 138-43 36.98-11.935 76.77-16.272 115-26 9.88-2.514 18.12-1.474 28-4 37.18-9.511 79.61-9.979 118-19 15.07-3.541 30.95-2.761 45-6l103-12c12.8-2.813 26.2-.428 38-3 16.04-3.493 34.64.338 50-3l65-2c7.44 0 22.74 2.289 28-1z" fill-rule="evenodd"/><path data-name="Заливка цветом 2" d="M2438 146c21.38-.154 42.96.989 63 1 13.7.007 31.06-1.63 43 1 16.79 3.7 37.22-1.481 53 2h18c17.17 3.8 38.17 1.263 55 5l33 2c28.84 6.51 61.18 5.391 89 12l35 4c27.83 6.779 58.87 9.046 86 16l36 6c23.75 6.688 49.74 11.623 72 19 11.36 3.765 31.15 4.988 35 16 .8 1.179.77 1.681 1 4-16.35 17.873-39.23 19.786-64 29-41.62 15.484-84.74 27.022-126 44-37.96 15.621-75.92 29.688-113 46-31.64 13.918-64.22 30.464-93 48-9.83 5.992-20.19 9.027-30 15-30.07 18.308-60.87 35.615-90 55-44.97 29.928-87.84 62.308-131 94-23.77 17.455-45.29 38.174-69 56-26.49 19.915-48.46 45.942-75 66l-12 13c-16.24 12.28-29.72 27.721-44 42-11.51 11.511-24.09 21.884-34 35q-8.505 8-17 16c-10.78 14.26-24.21 25.717-35 40-12.15 16.075-29.81 28.833-42 45-35.83 47.52-76.51 90.656-112 139-32.24 43.92-70.4 84.24-102 129-53.28 75.48-106.32 153.25-154 234-43.04-16.32-85.03-37.7-127-56-45.02-19.63-90.39-35.24-136-55-19.23-8.33-39.88-15.48-60-24-11.09-4.7-22.46-10.9-35-14v-3c9.68-8.2 16.86-27.66 24-39 21.33-33.87 40.52-69.42 62-104 65.58-105.574 118-219.959 168-342 4.87-11.9 5.89-23.494 10-36 8.65-26.3 15.31-55.685 23-83 10.15-36.045 13.28-73.5 22-111q3.495-32 7-64c13.43-56.639 16.12-109.872 46-150 3.76-5.053 9.9-9.159 15-13 7.56-5.7 14.55-12.846 23-18 29.46-17.971 67.32-23.406 103-35 37.28-12.111 78.8-19.074 118-30 23.74-6.616 48.86-8.1 72-14 27.4-6.991 56.1-7.543 83-14l122-15 101-10c10.08-2.216 20.99-.025 30-2 11.2-2.454 46.07 2.337 53-2zm766 176c205.44-4.321 348.76 80.6 473 159 23.75 14.986 48.31 27.045 72 42 45.83 28.928 89.87 60.918 134 92 39.45 27.785 74.73 61.117 113 90 16.52 12.469 29.54 30.551 46 43a302.692 302.692 0 0126 22q6.495 7 13 14c11.3 8.54 20.1 19.1 30 29s20.46 18.7 29 30l12 11c8.06 8.061 15.39 16.45 23 25q4.995 4.5 10 9c35.36 46.763 78.7 86.882 114 134 5.49 7.33 13.51 13.65 19 21 23.18 30.99 48.71 60.28 71 92 23.55 33.52 45.39 68.8 67 104 8.15 13.28 13.81 26.79 22 40 13.72 22.11 25.94 43.52 37 69 3.78 8.7 11.03 19.28 7 30-13.55 6.38-35.1-4.8-46-9-40.6-15.63-81.18-28.61-119-47-77.14-37.51-161.21-64.59-247-93-37.66-12.47-77.62-18.9-115-31-37.24-12.06-78.63-16.17-117-26-9.89-2.53-18.01-1.44-28-4-40.76-10.44-87.74-10.25-130-20-16.97-3.92-34.86-2.38-51-6q-33.495-2.505-67-5c-27.11-5.95-59.18-.84-87-7-7.77-1.72-18.46.45-25-1h-41c-13.52-2.9-58.52-2.97-72 0-10 2.2-23.24-.93-32 1q-28.995 1.005-58 2c-13.62 3.03-29.43-.26-44 3-31.03 6.94-66.25 4.07-96 11-20.6 4.8-40.12 2.87-60 8-54.6 14.09-111.96 19.83-164 37-92.06 30.38-183.21 57.3-264 99-114.81 59.26-215.11 130.09-302 217-40.29 40.3-81.8 82.96-113 132-25.34-10.97-49.7-25.3-74-38-19.97-10.44-40.01-18.6-60-29-31.96-16.62-64.36-33.16-98-48-29.41-12.97-58.45-30.97-88-44-27.33-12.05-54.08-24.49-80-38-6.88-3.59-25.93-9.97-29-16 9-7.59 13.65-22.78 20-33 14.23-22.89 27.39-46.8 42-70 39.59-62.89 84.08-121.29 127-181 38.67-53.79 83.31-102.83 123-156 10.66-14.285 24.14-26.623 35-41 6.07-8.037 15.94-13.984 22-22 12.05-15.94 26.92-30.917 41-45q10.995-10.5 22-21a218.131 218.131 0 0141-41c8.74-6.6 15-16.2 24-23q6.495-7 13-14c22.52-17.033 41.39-37.944 64-55 8.25-6.225 14.75-15.772 23-22 35.47-26.781 66.22-59.676 102-86 44.72-32.9 89.59-67 137-97 48.92-30.955 99.25-57.579 152-85 16.23-8.436 33.27-18.641 50-26 29.77-13.1 60.44-24.489 91-37 13.75-5.629 27.42-7.167 42-12 24.21-8.025 50.78-14.74 77-22l45-7zm-1663 28c17.2-.373 28.4 4.968 32 18v8c1.66 7.667 1.69 22.334 0 30v16l-6 57c-10.64 45.083-11.72 92.863-24 136-15.71 55.208-27.9 112.122-49 163-43.97 106.039-96.29 201.516-156 291-21.04 31.53-42.48 62.37-64 93-4.79 6.82-15.16 28.21-23 30-8.91-6.45-22.36-7.59-33-12-24.65-10.21-50.95-17.3-77-27-62.52-23.28-129.14-40.1-196-59q-54.5-10.995-109-22c-40-10.25-85.066-8.67-124-20-13.352-3.88-33.623-5.67-38-18-3.377-3.7-4.326-14.74-2-21 5.082-13.68 15.688-27.891 25-38 45.528-49.425 89.555-99.564 137-147 106.709-106.69 225.72-201.972 351-290 39.47-27.733 82.71-51.627 124-77 32.28-19.837 67.97-33.677 101-53a693.553 693.553 0 0169-35c13.19-5.791 25.98-11.657 39-17 6.04-2.478 18-2.663 23-6zm-905 812c135.041-2.27 243.944 20.82 344 54 28.53 9.46 56.97 15.97 84 26 31.55 11.7 63.23 20.47 93 33 7.21 3.03 27.99 7.23 31 13-10.69 11.43-19.58 32.55-29 46-19.32 27.58-40.88 53.28-61 80-9.56 12.69-22.28 23.14-32 36q-7.005 6.495-14 13c-25.47 33.66-58.445 61.18-84 95-7.809 10.33-19.729 19.05-28 30q-14.5 13.995-29 28c-15.061 15.06-28.883 32.07-46 45q-7.5 7.995-15 16c-20.641 15.6-36.423 36.45-57 52q-13.5 13.995-27 28c-21.667 21.67-44.334 42.33-66 64l-35 36c-22.571 17.05-41.1 40.1-61 60-13.167 13.17-25.834 26.83-39 40-9.9 9.9-20.463 18.7-29 30q-12 11.505-24 23c-29.131 38.53-68.814 68.38-98 107-6.06 8.02-15.924 13.97-22 22-10.306 13.63-23.869 24.6-34 38-23.8 31.49-52.607 59.17-76 91-38.641 52.58-74.536 109.1-119 156-6.281.06-8.585-1.02-9-7-3.385-5.31-1.96-24.27-2-33-.108-23.47 1.75-49.05 2-73 .16-15.35.9-33.85 4-48 3.22-14.69 1.048-29.7 4-43l1-19c3.965-17.3 4.012-38.06 8-55l3-27c6.377-26.23 8.194-55.48 15-81l3-20c11.96-42.51 16.436-88.34 30-130 18.43-56.6 32.872-114.79 53-169 6.572-17.7 9.884-34.72 17-52 14.49-35.2 27.663-71.13 43-106 11.285-25.66 25.845-51.66 37-77 14.738-33.48 30.557-66.71 49-97 7.921-13.01 12.115-27.02 20-40 18.087-29.77 35.635-60.83 54-90 12.757-20.26 24.205-44.89 43-59 16.486-12.38 35.035-21.96 57-29l30-6c3.883-.88 8.378.63 11-1zm2723 83c22.84-.2 55.55-3.44 76 1 9.06 1.97 21.19-.7 29 1 14.07 3.06 29.3-.76 42 2h16c13.51 2.97 30.62 1.08 44 4q12.495.495 25 1c23.73 5.26 51.71 2.81 75 8l38 3c40.19 9.2 83.6 9.25 122 19 18.5 4.7 35.97 4.14 54 9 55.25 14.9 113.29 22.96 166 40 10.76 3.48 20.29 3.51 31 7 40.21 13.09 82.66 21.25 121 37 39.92 16.4 80.83 32.26 119 49 17.29 7.58 34.27 13.45 50 23 50.86 30.89 100.1 62.31 147 97 17.95 13.28 39.53 34.18 53 52 6.78 8.97 17.21 16 24 25 16.78 22.25 34.97 44.24 50 68 45.19 71.44 79.27 155.96 108 243 10.06 30.47 14.87 62.99 23 95 10.52 41.43 10.52 85.88 20 128 4.46 19.81 2.78 40.43 7 59 4.45 19.56 1.56 38.18 6 58 6.31 28.17 2.63 61.53 9 91q.495 22.5 1 45c2.75 12.92-2 30.82 1 45 2 9.46 2.05 27.54 0 37v20c0 18.59 1.57 41.56-2 58q-1.005 27.495-2 55-7.005 69-14 138-13.005 82.485-26 165-8.505 42-17 84c-14.9 52.44-27.48 106.18-44 156-6.01 18.13-8.88 35.66-16 53-14.92 36.33-28.73 74.19-44 109-10.68 24.35-19.7 54.32-40 69-14.1 10.2-36.33 6.6-51-1-14.86-7.7-24.47-19.52-37-29-18.18-13.75-34.03-30.02-50-46-21.1-21.1-44.91-41.05-63-65-5.2-6.88-12.61-11.86-18-19q-7.5-7.005-15-14c-11.37-11.62-23.17-23.99-33-37q-6-5.505-12-11c-13.05-17.27-29.98-30.76-43-48q-8.505-7.995-17-16c-12.17-12.17-23.83-24.83-36-37l-109-109c-28.31-28.31-56.88-58.73-89-83q-4.005-4.5-8-9c-16.56-12.52-30.44-27.49-47-40-5.79-4.37-10.21-11.62-16-16-24.63-18.62-45.32-41.38-70-60-5.04-3.81-8.96-10.19-14-14-22.51-16.99-41.7-38.21-64-55-19.55-14.72-36.62-32.51-56-47-45.71-34.18-87.83-72.1-134-106-13.71-10.07-26.28-22.91-40-33-55-40.44-107.33-84.71-163-124-170.46-120.32-339.63-243.13-518-356-136.03-86.08-276.98-165.48-415-250-11.86-7.26-24.08-11.74-36-19-23.53-14.33-48.71-28.8-73-42-10.83-5.89-21.53-11.53-32-17-5.03-2.63-12.46-4-15-9 4.54-3.55 6.6-9.26 10-14 8.77-12.22 18.85-23.79 28-36 3.51-4.69 9.48-8.34 13-13 13.88-18.38 30.86-33.86 47-50 12.73-12.72 24.48-26.03 39-37q4.005-4.5 8-9c30.38-22.96 58.37-49.35 91-70 89.05-56.34 187.72-102.78 297-139 50.81-16.84 105.28-25.3 159-39 22.61-5.76 45.97-6.71 68-12q52.5-7.005 105-14 16.005-1.005 32-2c20.09-4.44 50.08-4.83 72-5q18-.495 36-1c5.07 0 13.68 1.08 17-1zm-2063 81c11.26 2.21 22.14 8.77 32 13 24.63 10.56 49.29 19.64 73 30 29.92 13.07 58.59 24.03 88 37 51.09 22.53 100.8 49.98 151 74-5.58 12.54-13.99 24.59-21 36-14.55 23.7-26.75 48.69-41 72-27.93 45.68-50.33 94.6-78 140-13.28 21.79-21.75 45.2-35 67-45.08 74.18-80.34 154.2-121 233-25.38 49.18-50.22 99.35-73 151-11.99 27.18-27.95 54.62-40 82-23.72 53.86-46.58 107.98-70 162-21.11 48.7-37.86 99.18-58 148-7.22 17.5-10.78 34.46-18 52-21.65 52.6-38.79 109.37-59 163-16.28 43.2-26.7 88.93-41 133-6.131 18.89-7.794 36.93-14 56-23.624 72.61-35.517 150.83-55 227-9.891 38.67-11.692 79.38-21 118l-17 126-3 42c-5.678 25.88-1.185 56.64-7 83-1.295 5.87.022 14.36-1 19-1.715 7.77.443 18.46-1 25v41c-2.967 13.86-3.028 60.18 0 74 3.583 16.35-1.472 38.17 2 54l3 67c3.342 15.05.377 31.87 4 48 8.263 36.8 8.1 78.2 17 113 2.855 11.16 1.949 21.04 5 32 9.283 33.35 15.513 67.58 24 102 3.323 13.48 7.152 44.47-5 49-8.143 5.04-18.687-5.06-23-8-19.125-13.02-34.942-28.03-51-44-45.114-44.87-92.417-89.83-131-141-5.641-7.48-14.353-13.52-20-21-12.961-17.16-27.123-32.67-40-50-15.231-20.5-33.179-39.95-48-61-98.479-139.85-190.324-286.47-263-452-27.492-62.62-51.735-127.88-74-195-11.874-35.79-19.036-71.53-31-108-13.924-42.44-22.608-88.5-35-133-5.517-19.81-7.1-40.77-12-60-4.869-19.12-3.616-37.69-8-58-1.6-7.44-1.334-18.44-3-26v-19c-3.991-19.28-2.1-68.51 2-86 10.632-45.37 14.614-93.1 31-133a672.647 672.647 0 0147-94c6.388-10.49 9.645-21.56 16-32 17.514-28.77 34.783-57.72 54-85 30.967-43.96 66.8-84.88 99-128 7.9-10.58 19.079-19.49 27-30 13.954-18.51 31.12-33.64 45-52q12-11.505 24-23c8.815-11.66 19.78-20.78 30-31 9.9-9.9 18.7-20.46 30-29 9.485-7.17 16.255-17.64 26-25 14.352-10.85 24.636-28.14 39-39 33.507-25.34 59.471-59.66 93-85 11.757-8.89 20.257-23.12 32-32a267.691 267.691 0 0027-24q5-5.505 10-11c18.185-13.75 37.742-33.77 54-50q15.5-16.005 31-32c18.205-13.76 32.971-31.97 49-48 15.705-15.71 33.517-30.16 47-48q18-17.505 36-35c8.07-10.68 17.8-20.33 27-30q6-5.505 12-11c22.42-29.63 49.58-54.97 72-85 14.26-19.1 31.83-36.72 46-56 24.1-32.8 47.44-65.45 71-99 13.64-19.42 31.04-38.48 42-60zm448 204c12.35 1.51 31.41 14.45 42 20 29.38 15.39 60 28.84 89 44 32.29 16.87 64.55 32.25 98 47 20.12 8.87 40.46 20.89 60 31 10.37 5.37 20.75 8.67 31 14 35.31 18.36 71.93 36.71 108 54-3.65 15.56-20.46 37.61-28 52-20.51 39.13-39.2 79.95-57 121-24.49 56.47-41.31 117.09-59 180-10.72 38.14-12.88 78.64-22 118q-4.005 37.5-8 75c-2.2 9.97-.02 20.98-2 30q-.495 22.5-1 45c-4.12 19.34-2 46.06-2 68 0 29.48-2.57 64.49 3 90v14q4.005 35.49 8 71c5.93 25.3 4.67 53.97 11 80 3.78 15.57 3.78 32.61 8 49 9.66 37.52 14.8 77.75 25 114 5.01 17.81 5.96 34.3 11 52 21.15 74.33 34.97 151.05 59 223 18.67 55.91 35.17 113.8 57 167 8.82 21.5 13.19 42.68 22 64 46.57 112.68 90.87 226.67 139 337 32.24 73.91 61.56 150.64 100 219 2.81 5 3.43 10.06 6 15 9.53 18.32 19.29 38.42 30 56 4.68 7.69 6.32 16.31 11 24 15.1 24.85 27.91 52.27 43 77 9.17 15.03 14.83 30.95 24 46 32.57 53.48 60.12 110.37 93 164 63.5 103.57 125.87 206.47 189 310a422.352 422.352 0 0145 101c4.36 14.62 4.39 38.53-2 51-9.84 19.21-34.96 26.97-57 34-30.85 9.84-66.88 8.61-100 16-10.27 2.29-20.86.98-30 3-16.66 3.68-34.37.57-50 4l-73 3c-7.82 1.68-19.93-.94-29 1-20.73 4.44-49.29 1-72 1-19.28 0-43.63 2.78-61-1-12.24-2.66-28.01 1.39-39-1h-25q-49.5-4.005-99-8c-23.96-5.45-49.61-4.18-74-10-17.12-4.09-35.9-3.59-54-8-48.05-11.7-99.25-15.23-145-28-18.52-5.17-35.77-5.81-54-11-42.24-12.03-84.85-21.25-126-35-127.48-42.6-254.64-88.26-360-153-18.88-11.6-38.18-20.51-56-33a884.81 884.81 0 01-241-253c-49.95-79.19-77.51-174.6-106-276l-14-72-13-105c-1.809-8.12-.438-16.89-2-24l-2-53c-2.365-11 1.623-26.75-1-39-3.792-17.71-1-42.38-1-62 0-18.41-2.6-38.39 0-56 1.48-10.01-.867-22.42 1-31 1.417-6.51-.147-15.73 1-21 2.715-12.47-.427-25.87 2-37l4-68c4.77-21.31 1.91-45.05 7-67 10.03-43.21 10.7-88.12 22-130 8.59-31.83 11.87-64.87 21-97 25.34-89.17 41.24-180.89 70-267 24.23-72.56 44.63-148.86 73-218 7.33-17.86 10.68-35.24 18-53 15.59-37.85 28.59-77.19 45-115 44.31-102.08 87.31-206.65 132-308 18.68-42.37 43.44-83.86 62-126 15.07-34.21 31.05-68.89 50-100 4.68-7.69 6.32-16.31 11-24 10.75-17.69 20.27-37.39 31-55 22.19-36.42 38.88-74.93 61-111 31.1-50.72 61.18-102.5 93-153 15.4-24.45 35.93-50.46 49-76zm527 268c14.31 6.39 27.95 15.99 41 24 27.68 16.99 56.74 31.28 84 48 51.62 31.65 105.1 57.96 156 90 53.81 33.87 107.5 69.15 161 103 57.53 36.4 114.55 71.72 172 108 29.59 18.68 58.48 40.32 88 59 27.3 17.28 54.61 33.5 81 52 74.57 52.26 149.67 103.65 224 156 108.61 76.49 208.24 163.62 315 242 12.75 9.36 24.27 21.63 37 31 53 38.98 100.71 83.68 153 123 23.45 17.64 43.39 40.17 67 58 5.41 4.09 9.58 10.9 15 15 25.2 19.04 45.83 42.98 71 62 6.9 5.22 12.09 13.77 19 19 22.15 16.75 39.88 38.28 62 55q6.495 7.005 13 14a274.841 274.841 0 0128 25q4.995 5.505 10 11c10.86 8.21 18.4 19.98 29 28 22.93 17.34 41.78 40.77 62 61 45.1 45.1 93.32 89.74 132 141 5.94 7.87 15.06 14.14 21 22 13.85 18.31 29.75 35.13 43 54 29.76 42.36 53.53 91 74 142 6.94 17.29 7.59 37.29 12 57 1.9 8.5.36 17.59 2 25v22c.01 35.74-6.27 63.62-15 90-4.68 14.14-7.38 26.19-13 39-26.93 61.36-72.08 109.78-110 161-8.02 10.83-18.94 20.23-27 31-21.87 29.24-47.11 55.02-69 84-8.49 11.25-21.53 19.8-30 31-5.96 7.88-14.24 13.38-20 21a277.482 277.482 0 01-49 49q-9 9.495-18 19c-22.69 17.16-41.21 38.79-64 56-15.55 11.74-28.4 28.23-44 40-42.29 31.9-81.51 68.3-125 99-58.53 41.32-118.79 81.37-180 120-29.06 18.34-59.72 34.16-89 52-19.41 11.82-40.71 19.63-62 29-36.29 15.97-74.06 34.39-111 50-33.62 14.21-71.94 20.33-110 30q-21 2.505-42 5h-22c-15.78 3.28-47.41.35-62-3-17.4-3.99-32.67-2.97-48-8-39.42-12.93-68.84-28.71-99-50-17.66-12.46-33.93-25.14-51-38-5.43-4.09-9.59-10.91-15-15-9.41-7.11-23-18.75-30-28-10.01-13.23-22.26-24.75-32-38-26.33-35.82-53.07-72.17-77-110-34.5-54.52-65.2-112.01-99-167-7.67-12.48-12.37-25.47-20-38-21.62-35.51-40.26-74.31-62-110-9.85-16.17-15.14-33.77-25-50-9.39-15.46-18.57-32.89-27-49-3.84-7.33-5.71-14.94-10-22-11.4-18.76-20.76-39.05-30-60-6.25-14.17-15.73-28.76-22-43-11.51-26.14-22.42-50.72-34-77-33.62-76.3-68.4-154.49-102-232-11.28-26.02-19.05-51.6-30-78-34.45-83.03-64.85-171.24-94-259-19.88-59.86-34.5-121.86-54-182-7.67-23.65-11.59-48.1-19-71-3.54-10.93-3.65-21.01-7-32-10.53-34.6-17.07-72.72-27-108-13-46.19-16.53-94.25-28-142-3.82-15.93-2.55-32.71-6-48q-3.495-44.49-7-89c-5.76-26.56-4.86-57.76-5-88-.06-13-2.76-30.31 0-43q.495-30.495 1-61c2.28-10.27-.53-22.65 2-34 6.87-30.81 3.43-63.59 11-93 4.25-16.52 5.14-34.77 10-52 10.74-38.1 18.69-76.11 31-113 26.52-79.45 60.28-151.49 95-222z" fill="#f27022" fill-rule="evenodd"/><path data-name="Заливка цветом 3" d="M2394 246h75c12.15 0 27.57-1.31 38 1h19c8.63 1.3 20.67 1.144 29 3 14.91 3.321 30.42.962 44 4h12c17.15 3.837 38.21 2.175 55 6 30.52 6.954 83.55 1.348 83 38-3.31 3.949-3.84 9.921-8 13-12.91 9.557-28.48 15.164-44 22-22.81 10.052-46.49 20.645-70 31-21.5 9.47-44.22 21.95-64 34-12.16 7.407-24.9 11.63-37 19-31.01 18.882-62.54 37.343-92 58-25.39 17.805-49.14 38.732-74 57-115.5 84.883-220.41 187.358-306 302-9.17 12.282-21.81 22.72-31 35-28.12 37.6-58.88 73.4-86 112-29.06 41.36-54.83 84.38-84 126-29.4 41.96-59.45 84.37-87 128-15.56 24.64-30.21 49.32-46 73-4.52 6.78-9.5 21.74-18 24-5.26-4.63-13.12-5.96-20-9-13.69-6.05-27.53-12.61-42-19-25.63-11.32-52.19-24.78-78-36-24.37-10.6-49.77-18.98-74-29-18.79-7.77-37.97-13.55-56-21-6.84-2.82-20.73-3.78-24-10 10.85-11.26 18.43-31.21 27-45 19.98-32.14 38.75-65.41 59-98 31.81-51.18 61.46-104.226 93-156 10.14-16.643 17.03-34.911 25-53 16.01-36.33 35.85-73.171 52-110 9.29-21.183 16.27-43.707 25-65 15.02-36.653 21.55-75.975 32-117 7.37-28.942 5.3-60.071 14-87 14-43.354 28.47-73.48 57-102q6.495-7 13-14c18.95-14.249 39.51-27.355 63-37 19.31-7.928 39.54-9.934 61-16 38.43-10.862 81.25-15.914 122-26 19.57-4.846 40.12-4.542 59-9l95-12 136-13c11.19-2.454 46.08 2.336 53-2zm741 196c148.54-2.7 263.3 29.736 364 74 26.13 11.484 51.61 22.752 75 37 5.79 3.526 12.21 4.481 18 8 23.95 14.553 49.92 26.236 74 41 49.66 30.452 95.8 63.721 142 97 36.03 25.956 68.82 54.544 104 81 11.11 8.352 19.98 20.664 31 29 14.88 11.254 26.95 24.947 40 38 12.63 12.634 26.13 24.62 37 39q6.495 6 13 12a339.439 339.439 0 0125 29l9 8c17.11 22.618 39.06 41.5 56 64 17.36 23.06 34.17 44.85 50 70 9.53 15.15 22.72 30.13 30 47 2.44 5.66 5.03 17.13 1 23-5.14 15.63-34.42 14.79-52 10-32.84-8.95-67.07-17.61-99-28-15.54-5.06-30.32-5.9-46-11-42.72-13.91-90.65-20.41-136-32-25.3-6.47-52.05-6.18-77-12l-108-12q-58.995-4.005-118-8h-26c-13.87-2.99-32.88 2.24-48-1-5.6-1.2-15.4-.83-21 0-13.88 2.05-30.62-1.73-43 1h-19c-10.56.96-24.93.78-35 3h-15c-23.93 5.32-52.43 1.77-76 7h-12c-26.02 5.85-55.61 2.78-82 9-13.72 3.23-29.31 2.42-44 6-48.19 11.76-98.42 13.72-145 27-44.07 12.56-89.33 23.14-131 37-12.92 4.3-24.65 5.92-37 11-33.45 13.76-67.1 25.55-100 40-36.32 15.95-73.96 33.87-107 54-12.39 7.55-25.65 11.49-38 19-32.19 19.57-65.4 37.56-96 59-52.11 36.52-114.12 79.87-152 130-7.62 10.08-19.36 17.86-27 28-18.23 24.18-39.57 46.29-57 71-4.99 7.07-19.85 33-26 36-6.7-5.92-16.8-8.73-25-13-11.15-5.81-23.02-13.01-34-19-9.22-5.03-19.03-7.55-28-13-29.51-17.95-62.4-32.62-95-47-30.2-13.32-60.69-30.63-91-44-20.56-9.07-40.18-19.27-60-28-8.48-3.73-19.7-5.94-26-12 8.01-8.74 11.66-21.66 18-32 12.71-20.73 24.86-42.19 38-63 44.65-70.7 95.02-137.23 144-204 20.85-28.42 45.77-53.86 67-82 10.41-13.81 24.43-25.02 35-39l12-11c7.09-7.964 13.51-16.446 21-24q8.505-8 17-16c14.86-19.659 34.68-35.681 52-53 17-17 32.7-36.417 52-51q7.995-8.5 16-17c19.37-14.654 35.62-33.507 55-48 70.17-52.471 137.74-108.516 213-156 65.83-41.533 139.04-74.843 215-106 35.57-14.591 74.71-22.97 112-35 28.9-9.324 60.03-12.628 90-20 12.36-3.042 25.19-2.386 37-5zm-1644 15c8.73-.187 13.33 1.416 19 3 2.6 3.919 6.59 8.04 8 13 2.36 8.345 1.06 38.021-1 47-3.15 13.7-2.48 28.646-6 43-5.36 21.888-8.82 45.5-15 66-5.27 17.471-6.41 33.9-12 51-16.42 50.268-30.68 100.168-51 147-31.07 71.6-70.21 138.11-110 201-20.11 31.78-40.49 62.25-61 93-4.63 6.94-15.02 28.31-23 30-5.44-4.57-13.91-5.05-21-8-21.51-8.95-44.81-15.37-68-24-52.03-19.37-107.66-33.35-163-49q-40-7.995-80-16c-32.8-8.18-69.045-7.01-101-15-12.932-3.23-31.869-1.23-36-13-10.293-13.44 14.735-43.024 20-50 7.635-10.117 19.365-17.921 27-28 25.257-33.344 57.563-62.57 87-92a1945.06 1945.06 0 01360-284c23.04-14.156 46.89-24.885 70-39 26.41-16.131 54.82-33.186 84-46 18.53-8.14 36.91-16.2 55-24zm-800 744c117.2-2.53 216.362 23.03 304 52 50.79 16.79 101.9 29.24 148 51-6 9.64-14.47 17.93-21 27-23.04 32-48.54 60.94-72 92-9.96 13.18-26.15 23.97-36 37-11.02 14.57-25.2 26.2-38 39-15.848 15.85-31 33.4-49 47-11.746 8.87-20.244 23.11-32 32-35.2 26.61-63.668 61.31-99 88-9.715 7.34-17.288 18.66-27 26-36.4 27.52-66.6 62.5-103 90-10.171 7.69-18.4 18.99-29 27q-4.5 4.995-9 10-12 10.995-24 22-7.5 7.995-15 16a183.611 183.611 0 00-35 35c-9.138 12.09-22.667 20.65-32 33q-7.5 7.005-15 14c-10.791 10.89-21.722 22.72-31 35l-10 9c-10.593 14.01-24.586 25.22-35 39-31.813 42.09-71.179 77.67-103 120-6.063 8.06-14.942 14.9-21 23-11 14.71-23.29 28.42-34 43-5.913 8.05-6.668 15.92-21 16-9.378-14.85-3.314-68.73-2-91 1.909-32.37 5.9-70.44 13-100l4-32c7.126-28.38 10.315-59.47 18-87 3.536-12.67 3.458-23.56 7-36 11.079-38.91 20.268-77.9 33-116 44.585-133.42 95.64-257.37 163-367 7.77-12.65 13.143-25.51 21-38 15.03-23.89 31.463-47.69 47-71 10.9-16.36 24.711-39.52 40-51 15.337-11.52 32.581-20.37 53-27l31-6c3.882-.88 8.378.63 11-1zm2523 106c29.42-.24 68.02-3.63 94 2 16.21 3.52 33.96-1.26 49 2h23c21.94 4.82 48.56.33 70 5q18.495 1.005 37 2c37.63 8.39 79.71 6.47 116 15 13.91 3.27 26.27 1.66 40 5 34.75 8.44 73.12 11.37 107 20 31.05 7.91 60.9 9.44 91 18 109.9 31.24 218.55 58.79 316 101 39.07 16.92 78.97 31.7 114 53 32.84 19.97 63.8 41.82 94 64 11.38 8.36 21.84 16.58 33 25 5.81 4.38 10.22 11.63 16 16 8.13 6.15 18.9 13.93 25 22 25.13 33.23 55.7 62.58 80 97 24.25 34.36 44.72 71.4 67 108 11.22 18.43 17.15 39.56 26 60 16.24 37.5 28.58 78.38 42 120 11.11 34.45 14.95 71.34 24 107 5.92 23.32 5.7 48.04 11 71q1.005 11.505 2 23c6.52 28.4 4.49 61.23 11 91q.495 19.005 1 38c2.13 10.05-1.38 24.69 1 36 2.67 12.69 1.72 47.42-1 60v18c-5.17 23.51-1.95 51.14-7 74q-.495 10.005-1 20c-5.46 24.21-4.54 52.33-10 76-3.96 17.17-1.88 33.03-6 50-8.06 33.17-11.19 69.38-20 101-3.52 12.64-3.45 23.52-7 36-9.05 31.85-16.92 65.54-27 96-4.7 14.19-6.46 27.51-12 41-13.82 33.66-26.88 68.64-41 101-7.25 16.63-16.59 45.36-30 55-12.71 9.14-32.98 9.43-48 2-30.7-15.2-54.83-41.83-78-65-11.28-11.28-23.24-23.35-36-33q-7.005-7.5-14-15c-14.17-14.17-27.83-28.83-42-43q-19.5-19.005-39-38a240.9 240.9 0 00-45-45c-14.77-11.16-25.7-28.44-41-40q-9.495-10.005-19-20c-22.46-16.99-40.46-38.97-63-56q-4.005-4.5-8-9c-30.62-23.15-56.25-51.85-87-75-7.14-5.38-12.86-13.63-20-19-29.16-21.96-54.93-48.26-84-70-61.39-45.91-120.03-95.65-183-140-173.45-122.15-351.87-238.75-533-353-31.45-19.84-64.94-34.51-97-54-77.54-47.13-159.77-87.85-237-135-40.91-24.97-84.05-44.06-125-69-31.71-19.31-65.79-35.39-98-55-37.92-23.09-78.42-45.13-118-66-30.06-15.85-61.4-29.59-90-47-7.13-4.34-30.23-11.35-32-19 8.59-6.1 18.36-23.13 25-32 8.77-11.71 20.61-23.61 31-34q6-5.505 12-11c6.06-8.03 12.96-13.11 20-20q6-6.495 12-13c20.37-15.41 38.45-33.9 59-49 33.04-24.29 67.63-47.27 103-69 40.41-24.83 88.02-41.17 134-60 10.07-4.13 19.79-5.21 30-9 51.64-19.16 108.61-29.39 166-44 23.95-6.1 49.37-6.54 73-12q36-4.005 72-8c9.7-2.13 20.3-.1 29-2 10.72-2.34 35.44 2.76 43-2zm-1909 53c9.55.98 18.43 6.69 26 10 16.04 7.02 31.75 13.29 47 20 50.49 22.21 101.35 43.13 149 68 15.74 8.22 31.82 15.08 47 23 5.57 2.9 15.19 4.51 17 11-9.35 8.01-13.43 24.24-20 35-16.46 26.95-29.29 56.52-46 84-48.33 79.5-87.67 165.77-136 245-10.97 17.98-18.04 36.97-29 55-50.58 83.23-91.43 174-142 257-2.76 4.52-3.25 9.47-6 14-9.81 16.15-19.18 34.08-28 51-3.48 6.68-5.09 13.57-9 20-19.32 31.79-33.54 67.42-51 101-27.03 51.98-55.01 105.46-79 160-10.46 23.78-18.57 46.97-29 71-23 52.98-45.941 107.78-69 161-16.242 37.48-28.553 76.33-44 114-7.448 18.16-10.7 36.12-17 55-18.059 54.13-32.049 113.34-48 170-12.339 43.83-17.114 89.7-28 135-4.89 20.35-4.4 41.5-9 61-6.612 28.02-4.815 57.34-11 85l-6 85v27c-2.979 13.87 2.237 32.88-1 48-3.106 14.51-3.161 51.51 0 66v23c0 19.3-.77 40.8 3 58l2 36c8.234 37.12 7.6 77.48 16 114 2.483 10.8 6.494 40.27-3 44-4.337 3.3-15.19 2.31-20 0-16.592-7.95-31.157-20.08-44-32-53.069-49.24-97.276-109.55-140-169-24.579-34.2-50.642-68.34-75-103-24.467-34.82-45.639-72.37-68-109-16.814-27.55-29.658-57.71-43-88-8.394-19.05-19.564-38.75-28-58-11.532-26.31-21.108-53.41-32-80l-6-21c-12.04-32.48-18.876-66.94-29-103-15.419-54.92-23.985-115.58-24-186-.007-30.19-1.726-61.97 4-88 4.377-19.9 1.346-39.86 6-59 6.4-26.33 7.806-54.8 16-80 18.631-57.3 36.188-112.23 59-164a667.436 667.436 0 0140-76c6.266-10.28 9.752-20.81 16-31 20.171-32.9 39.943-66.53 62-98 20.353-29.03 42.986-56.38 64-85 25.453-34.67 57.08-64.68 83-99 4.087-5.41 10.9-9.58 15-15 23.432-31.01 53.64-56.09 77-87q6-5.505 12-11c9.647-9.68 19.73-20.06 28-31l13-12 28-30q9-8.505 18-17a252.539 252.539 0 0122-25l10-9c7.464-9.87 17.72-17.37 25-27 28.064-37.11 64.912-66.83 93-104l10-9c9.03-11.93 21.16-21.31 30-33 27.85-36.81 61.2-68.77 89-106 15.11-20.24 33.99-38.59 49-59 31.73-43.13 63.99-84.73 95-129 16.59-23.69 35.53-47.46 49-74zm454 213c11.28 2.67 21.95 10.57 32 15 29.68 13.08 58.19 27.31 87 40 85.39 37.62 166.24 79.53 250 119-.63 1.75-.19.97-1 2-1.52 5.22-5.47 8.89-8 13-7.91 12.83-14.35 26.49-22 39-5.99 9.8-9.02 20.16-15 30-17.23 28.33-33.3 60.89-47 92-22.43 50.94-38.86 104.82-57 161-13.61 42.12-17.31 87.49-28 132q-5.505 41.49-11 83c-2.71 12.24-.55 24.83-3 36q-1.005 22.005-2 44c-4.66 21.54-.19 48.09-5 70v23c-3.31 15.48-4.47 62.03-1 78 2.04 9.37-.77 21.87 1 30q1.005 35.49 2 71c3.77 17.05.01 36.12 4 54 8.64 38.72 6.16 82.52 15 120q4.005 28.5 8 57c13.96 55.76 18.69 113.19 34 167 27.92 98.13 49.46 196.63 81 291 20.6 61.63 44.03 121.12 68 179 22.34 53.96 42.22 108.45 65 161 14.36 33.12 25.54 66.07 40 99 17.75 40.41 37.96 80.57 58 119 12.31 23.6 22.5 47.84 36 70 8.46 13.89 12.57 29.13 21 43 34.9 57.44 60.98 120.49 96 178 17.53 28.79 32.93 59.29 51 88 26.52 42.13 54.54 84.05 81 126 14.71 23.33 26.76 48.57 41 72 4.1 6.74 5.74 13.51 9 21 11.19 25.71 35.57 76.7 13 108-14.67 20.34-42.48 26.35-70 34-34.8 9.67-76.1 6.83-113 15q-16.5 1.005-33 2c-28.1 6.13-63.17.68-92 7-7.46 1.64-17.78-.37-24 1h-46c-10.69 2.27-54.08 1.59-66-1-15.68-3.41-32.79 1.1-47-2h-16c-15.15-3.35-32.03-.42-48-4-12.07-2.71-25.93-1.02-39-4-40.43-9.21-86.13-7.38-125-17-18.94-4.69-36.65-3.83-55-9-45.92-12.93-92.48-20.47-136-35-111.35-37.18-213.23-88.18-301-150-21.14-14.89-39.48-33.49-60-49-9.9-7.48-17.12-19.53-27-27a189.421 189.421 0 01-36-36q-5.505-4.995-11-10c-11.98-15.84-26.43-29.93-38-46a898.526 898.526 0 01-102-183c-18.97-45.91-29.99-96.87-44-147q-9-57.99-18-116c-2.77-12.08-1.52-24.78-4-36l-3-54c-4.36-20.22-3.99-53.47-4-76v-33c-2.23-10.46-2.28-30.54 0-41 2.52-11.6-1.25-26.65 1-37v-20c.67-12.11.49-28.48 3-40q1.005-21.495 2-43 8.505-82.485 17-165 8.505-57.99 17-116c10.45-40.69 12.34-85.72 23-127 20.28-78.51 30.01-160.84 54-235 5.42-16.74 6.58-32.4 12-49 8.31-25.46 14.32-52.02 23-78 18.01-53.88 35.65-109.97 57-162 3.67-8.94 4.35-17.14 8-26 12.68-30.81 23.37-64.25 36-95 17.95-43.69 30.47-87.3 49-130 19.66-45.3 39.03-90.71 59-136 21.74-49.3 47.1-97.31 69-147 5.41-12.28 13.12-25.71 20-37 4.68-7.69 6.32-16.31 11-24 13.18-21.7 24.87-45.5 38-67 7.27-11.91 11.75-24.14 19-36 26.31-43.05 49.97-88.05 77-131 14.08-22.37 27.66-45.28 42-68 8.78-13.91 22.6-28.65 28-45zm533 277c14.08 3.4 36.8 20.37 49 28 33.31 20.82 66.35 41.32 99 62 113.68 72 224.05 146.46 333 223 29.51 20.73 59.48 39.31 89 60 62.56 43.84 124.53 89 187 133 26.81 18.89 51.65 41.63 78 61 68.79 50.57 134.34 104.59 203 155 12.74 9.36 24.29 21.58 37 31 56.4 41.83 107.19 89.97 163 132 22.69 17.09 42.06 38.73 65 56 4.3 3.24 7.7 8.76 12 12 30.21 22.75 56.81 49.27 87 72 7.13 5.37 12.9 13.64 20 19 17.92 13.53 33.13 29.5 51 43 6.91 5.22 12.1 13.78 19 19 9.61 7.27 17.4 15.74 27 23q6.495 7.005 13 14c10.65 8.05 20.61 17.61 30 27q4.995 5.505 10 11c18.97 14.34 35.26 33.26 52 50 105.16 105.17 211.29 208.26 298 332 15.24 21.75 30.18 44.6 41 71 6.62 16.16 8.24 32.76 13 51 3.12 11.95 8.62 39.7 5 56-1.4 6.29-.35 15.18-2 22-4.58 18.89-7.94 37.3-15 54-34.09 80.64-89.95 137.77-139 203-13.03 17.33-30.97 31.76-44 49-9.12 12.06-19.92 21.98-29 34q-7.995 7.5-16 15c-21.09 27.89-49.38 51.38-74 76-83.21 83.2-175.2 159.58-277 224-38.62 24.44-78.8 46.13-118 70-15.09 9.19-31.83 13.79-47 23-17.27 10.49-36.51 18.39-55 28-15.14 7.87-31.22 17.08-47 24-37.28 16.36-80.23 27.29-122 39-69.28 19.43-171.05 8.12-219-21-64.29-39.05-112.34-90.49-156-150-25.11-34.23-53.01-67.6-76-104-26.03-41.21-51.28-82.7-77-124-6.15-9.88-9.89-20.03-16-30-34.18-55.75-60.67-118.65-95-175-10-16.42-15.01-34.56-25-51-14.63-24.08-25.71-50.43-39-76-19.44-37.4-39.67-76.49-57-116-19.99-45.58-36.12-91.18-56-137-27.27-62.85-52.72-128.25-79-192-11.02-26.73-18.24-54.76-29-81-9.31-22.7-13.45-45.99-22-69-27.06-72.81-46.55-150.57-71-226-4.21-12.98-4.77-24.97-9-38-15.53-47.81-23.99-99.98-37-151-6.97-27.31-7.56-56.19-14-83l-3-27c-6.69-27.86-6.42-60.27-13-89-2.38-10.39-.89-21.43-3-31q-1.005-24-2-48c-4.86-22.6.05-50.04-5-73v-28c-4.07-19.38-1.88-68.27 2-86q1.005-16.5 2-33c7.54-33.4 4.66-69.61 13-102 10.24-39.75 17.34-79.99 30-118 16.88-50.69 37.97-97.68 60-143z" fill="#f39600" fill-rule="evenodd"/></svg>