<svg xmlns="http://www.w3.org/2000/svg" width="455" height="560"><path fill="#c7c7c7" data-name="Заливка цветом 3" d="M201.885 5.721a1.564 1.564 0 01.96.36h.36V6.2h.24v.12l.6.12v.12h.36v.12h.24v.12h.36v.12h.24v.12h.355v.12l.48.12v.12h.36v.12h.24v.12l.6.12v.12h.36V8h.24v.12h.36v.12h.24v.12h.36v.12h.24v.12h.36v.12l.48.12v.12h.36v.12h.239v.12l.6.12v.12h.36v.12h.24v.12h.36v.12h.24v.12h.36c4.283 1.935 8.894 3.609 13.2 5.519h.36v.12h.24v.12h.36v.121l.48.12v.12h.36v.12h.24v.12l.6.12v.12h.36v.12h.24v.12h.36v.12h.24V17h.359v.12h.24v.12h.36v.12l.48.12v.12h.36v.12h.24v.12l1.08.36v.48h-.12l-.24 2.16h-.12v.6h-.12v.48h-.12v.6H232V23h-.12l-.12.84h-.12l-.12.84h-.12v.36h-.12v.36h-.12l-.12.72h-.12v.36h-.12v.24h-.12v.36h-.12v.36h-.12v.24h-.12v.36h-.12v.24h-.12v.36h-.12l-.119.48h-.12l-.12.6h-.12l-.24.72h-.12v.24H229v.24h-.12v.24h-.12v.24h-.12v.24h-.12v.24h-.12v.24l-.24.12v.24h-.12v.24h-.12v.24h-.12v.24l-.24.12-.12.48-.24.12-.12.48-.24.12-.12.48-.24.12v.24l-.24.12v.24l-.24.12v.24l-.24.12v.24l-.24.12v.24h-.12a1 1 0 00-.24.48h178.284v32.028h-189.8l-.24.72h-.12v.24h-.12v.36h-.12v.24h-.12v.24h-.124v.24h-.12v.24h-.12v.24h-.12v.24h-.12l-.24.72h-.12v.36h-.12v.24h-.12v.24h-.12v.24h-.12v.24h-.12v.24h-.12v.24h-.12v.24H211v.24h-.12v.24h-.12l-.24.72h-.12q-.118.36-.239.72h-.12l-.12.48h-.121l-.12.48h-.12v.24h-.12v.24h-.12v.24h-.12v.24h-.12l-.12.48h-.12l-.12.48h-.12v.24h-.12v.24h-.12v.24h-.12v.24h-.12l-.12.48-.24.12v.24h-.12v.24h-.12v.24h-.12v.24h-.12v.24l-.24.12-.12.48a2.427 2.427 0 00-.48.84h171.689v111.334h-186.2v-90.941h-.84l-.12.36h-.12v.24l-.239.12v.239l-.24.12-.12.48h-.12l-.12.36-.24.12v.24l-.36.24v.24h-.12l-.12.36-.24.12v.24l-.36.24v.24l-.24.12v.24l-.24.12-.12.36-.36.24v.24l-.36.24v.24l-.36.239v.24l-.36.24v.24l-.36.24v.24l-.479.36-.12.36-.24.12v.24l-.24.12v.12l-.24.12v.24l-.48.36v.24l-.6.48v.24l-.48.36v.239l-.6.48v.24l-.48.36v.24l-.6.48v.24l-.719.6v.24l-.6.48v.24l-.72.6v.24l-.72.6v.24l-.36.24-.36.48h-.12v.24l-.84.72v.24l-.84.72v.24l-.959.84v.24l-.96.839v.24l-.96.84v.24l-1.08.96v.24l-1.2 1.08v.24l-1.319 1.2v.24l-1.08.96v.12l-.24.12v.24l-1.44 1.32v.24l-1.679 1.559v.24l-1.2 1.08-.36.48-.24.12v.24l-1.92 1.8v.24l-2.279 2.159a16.78 16.78 0 01-1.8 2.04l-.72.6v.24l-.24.119-.6.72a11.986 11.986 0 00-2.4 2.52h-.24l-.24-.36h-.24l-.96-1.08h-.24l-.959-1.08h-.24l-.96-1.079h-.24l-.96-1.08h-.24l-.84-.96h-.24l-.36-.48-.479-.36-.12-.24h-.24l-.96-1.08h-.24l-.36-.479-.48-.36-.12-.24h-.24l-.96-1.08h-.24l-.959-1.08h-.24l-.84-.96h-.24l-.96-1.079h-.24l-.96-1.08h-.24l-.959-1.08h-.24l-.36-.48-.48-.36-.12-.24h-.24l-.96-1.08h-.24l-.84-.959h-.24l-.959-1.08h-.241l-.96-1.08h-.24l-.96-1.08h-.24l-.96-1.08 2.28-2.039.48-.6h.24l1.559-1.68.36-.24v-.12h.24l3.359-3.479.36-.12 3-3.119 1.32-1.2v-.24l.359-.24.6-.72 2.52-2.4v-.24h.12l.36-.48 1.559-1.44v-.24l1.44-1.319v-.242l1.32-1.2v-.24l1.2-1.08v-.24l.959-.84v-.24l.96-.839v-.24l.84-.72v-.24l.84-.72v-.24l.72-.6v-.24l.72-.6v-.24l.6-.48v-.24l.72-.6v-.24l.6-.48V93.9l.6-.48v-.24l.48-.36v-.24l.6-.48v-.24l.24-.12v-.12l.24-.12v-.24l.6-.48v-.24l.48-.36v-.24l.479-.36v-.24l.48-.36v-.24l.36-.24v-.24l.48-.36v-.24l.48-.36v-.24l.36-.24v-.24l.36-.24v-.24l.48-.36v-.24l.36-.24.12-.36.24-.12v-.24l.36-.24v-.24l.36-.24v-.24l.359-.24v-.24l.36-.24v-.24l.36-.24v-.24l.36-.24.12-.36.24-.12v-.24l.24-.12v-.24l.36-.24v-.24l.36-.24v-.24l.24-.12v-.24l.36-.24v-.24l.24-.12v-.24l.36-.24v-.24l.24-.12v-.24l.36-.24v-.24l.24-.12v-.24h.12l.119-.36.24-.12v-.24l.36-.24v-.24l.24-.12.12-.36h.12v-.24l.24-.12v-.24l.24-.12v-.24l.36-.24v-.24l.24-.12.12-.36h.12v-.24l.24-.12v-.24l.24-.12v-.24l.24-.12v-.24l.24-.12.12-.48.24-.12v-.24l.24-.12v-.24h.12l.12-.36.24-.12v-.24l.24-.12.12-.36h.119l.12-.48.24-.12v-.24l.24-.12v-.24l.24-.12.12-.48h.12l.12-.36.24-.12v-.24h.12v-.24l.24-.12.12-.48h.12l.12-.36.24-.12v-.24h.12v-.24l.24-.12.12-.48.24-.12.12-.48.24-.12.12-.48.24-.12.12-.48.24-.12.24-.72.24-.12v-.24h.12v-.24l.239-.12v-.23h.12v-.24h.12v-.24l.24-.12.24-.72.24-.12v-.24h.12v-.24h.12v-.24h.12v-.24l.24-.12v-.24h.12v-.24h.12v-.24h.12v-.24l.24-.12v-.24h.12v-.24h.12v-.24h.12v-.24h.12v-.24l.24-.12v-.24h.12v-.24h.12v-.24h.12v-.24h.12v-.24h.12l.12-.48.24-.12.24-.72h.12l.24-.72h.12l.12-.48h.119l.12-.48h.12v-.24h.12v-.24h.12v-.24h.12v-.24h.12l.24-.72c2.409-4.505 4.371-9.453 6.479-14.277l.12-.72h.12v-.24h.12v-.36h.12v-.24h.12l.12-.72h.12v-.24h.12l.12-.72h.12v-.24h.12v-.36h.12l.24-1.08c1.3-2.984 2.108-6.446 3.239-9.6v-.48h.12V20.6h.12l.12-.84h.12l.12-.96h.12v-.48c.459-1.279.777-2.883 1.2-4.2l.359-2.16c.329-1.018.518-2.324.84-3.359l.12-1.32a8.742 8.742 0 00.359-1.56zM126.421 8.24a2 2 0 01.959.48h.24v.12l.72.24.12.24h.24v.12h.24v.12h.24v.12h.24v.12l.48.12.12.24h.24v.12h.24v.12h.24v.12h.24v.12l.48.12.12.24h.24v.12h.239v.12h.24v.12h.24v.12l.48.12.12.24h.24v.12h.24v.12h.24v.12h.24v.12l.48.12.12.24h.24v.12h.24v.12h.24v.12h.24v.12l.48.12.12.24h.24v.12h.24v.12h.239v.12h.24V14l.48.12.12.24h.24v.12h.24v.12h.24v.12h.24v.12l.48.12.12.24h.24v.12h.24v.12h.24v.12h.24v.12l.48.12.12.24h.24v.12h.24v.12h.24v.12h.242v.12l.48.12.12.24h.24V17h.24v.12h.24v.12h.24v.12l.48.12.12.24h.24v.12h.24v.12h.24v.12h.24v.12l.48.12.12.24h.24v.12h.24v.12h.24v.12h.24v.12l.479.12.12.24h.24v.12h.24v.12h.24v.12h.24v.12l.48.12.12.24h.24v.12h.24v.12h.24v.12h.24v.12l.48.12.12.24.48.12v.12h.24v.12h.24v.12h.24v.12h.239l.12.24h.24v.12h.24v.12h.24v.12h.24v.12h.24v.12h.24l.12.24h.24v.12h.24V23h.24v.12h.24v.12l.48.12.12.24h.24v.12h.24v.12h.24v.12h.24v.12l.48.12.119.24h.24v.12h.24v.12h.24v.12h.24v.12h.24v.12h.24l.12.24.48.12 1.2.72-.72 2.16v.36h-.12v.48c-.982 2.68-1.711 5.658-2.759 8.278l-.12.72h-.12v.36h-.12v.36h-.118v.36h-.12v.36h-.12v.36h-.12v.36h-.12v.36h-.12v.24h-.12l-.24 1.08h-.12l-.24 1.08h-.12v.24h-.12v.36h-.12v.36h-.12v.36h-.12v.36h-.12v.36h-.12v.24h-.12l-.24 1.08h-.12v.24h-.12l-.24 1.08h-.12v.24h-.12l-.24 1.08h-.12v.24h-.12l-.12.72h-.12v.24h-.12v.36h-.12v.36h-.12v.24h-.12l-.12.72h-.12v.24h-.12l-.12.72h-.12v.24h-.12v.36h-.12v.36h-.12v.24h-.12v.36h-.12v.24h-.12l-.12.72h-.12v.24h-.12v.36h-.12v.24h-.12l-.12.72h-.12v.24h-.12v.36h-.12v.24h-.12v.36h-.12v.24h-.12l-.12.72h-.12l-.12.6h-.12v.24h-.12v.36h-.12v.24h-.12v.36h-.12v.24h-.12l-.12.6h-.12v.36h-.12v.24h-.12l-.12.6h-.12v.36h-.119v.24h-.12v.36h-.12v.24h-.12v.36h-.121v.24h-.12v.36h-.12v.24h-.12v.36h-.12l-.12.48h-.12v.36h-.12v.24h-.12v.36h-.12l-.12.6h-.12v.24h-.12v.36h-.12l-.12.48h-.12v.36h-.12v.24h-.12l-.12.6h-.12v.36h-.12l-.12.48h-.12v.36h-.12v.24h-.12v.36h-.12l-.12.48h-.12l-.12.6h-.12v.36h-.12l-.12.48h-.12v.36h-.12l-.12.48h-.12l-.12.6h-.119v.36h-.12l-.12.48h-.121v.36h-.12l-.12.48h-.12v.36h-.12l-.12.48h-.12v.36h-.12l-.12.48h-.12v.36h-.12l-.12.48h-.12v.36h-.12l-.12.48h-.12v.36h-.12l-.12.48h-.12v.36h-.12l-.12.48h-.12v.36h-.12l-.12.48h-.12v.36h-.12v.24h-.12l-.12.48h-.12l-.48 1.44h-.12l-.12.48h-.12v.342h-.12l-.12.48h-.119v.36h-.12v.24h-.121l-.12.48h-.12v.36h-.12v.24h-.12l-.24.72h-.12v.36h-.12v.24h-.12l-.12.48h-.12v.36h-.12v.24h-.12l-.12.48h-.12v.36h-.12v.24h-.12l-.12.48h-.12v.36h-.12v.24h-.12l-.24.72h-.12v.36h-.12v.24h-.12l-.12.48h-.12v.36h-.12v.24h-.12v.24h-.12v.24h-.12v.36h-.12v.24h-.12l-.24.72h-.12v.36h-.12v.24h-.12l-.12.48h-.12v.36h-.12v.24h-.12v.24h-.12v.24h-.12v.36h-.12v.24h-.12l-.24.719h-.12v.36h-.12v.24h-.12l-.12.48h-.12v.36h-.12v.24h-.12v.24h-.12v.24h-.12l-.12.6h-.12l-.12.48h-.12v.36h-.12v.24h-.12l-.24.72h-.12v.359h-.12v.24h-.12l-.12.48h-.12v.36h-.12v.24h-.12v.24h-.12v.24h-.12v.36h-.12v.24h-.12l-.239.72h-.121v.36h-.12v.24h-.12l-.12.48h-.12v.36h-.12v.239h-.12v.24h-.12v.24h-.12v.36h-.12v.24h-.12v.24h-.12v.24h-.12v.36h-.12v.24h-.12l-.24.72h-.12v.36h-.12v.24h-.12l-.12.48h-.12v.36h-.12v.24h-.12v.239h-.12v.24h-.12v.36h-.12v.24h-.12l-.24.72h-.12v.36h-.12v.24h-.12l-.12.48h-.12v.36h-.12v.24h-.12v.24h-.12v.24h-.12l-.12.6h-.12l-.12.479h-.12v.36h-.12l-.24.72h-.12v.24h-.12v.36h-.12l-.12.48h-.12v.24h-.12v.36h-.12v.24h-.12l-.12.48h-.12v.36h-.12v276.3H86.949V174.886h-.72a1.1 1.1 0 01-.24.24v.24h-.12v.24l-.24.12v.24l-.24.12v.24h-.12v.24l-.24.12-.12.48h-.12l-.12.36-.24.12-.12.48-.24.12v.24l-.24.119-.12.36h-.12l-.12.48-.24.12v.24l-.24.12v.24l-.24.12v.24h-.119l-.12.36-.24.12v.24h-.12l-.12.36-.24.12v.24l-.24.12v.24l-.24.12v.24l-.24.12v.24l-.24.12v.24l-.24.119v.24l-.24.12v.24h-.12l-.12.36-.24.12v.24l-.24.12v.24l-.36.24v.24h-.12l-.12.36-.24.12v.24l-.36.24v.24l-.24.12v.24l-.36.24v.24l-.24.12v.24l-.36.24v.239l-.24.12v.24l-.36.24v.24l-.36.24v.24l-.36.24v.24l-.36.24v.24l-.36.24v.24l-.36.24v.24l-.36.24v.24l-.24.12-.12.36-.36.24v.24l-.48.359v.24l-.48.36v.24l-.36.24v.24l-.48.36v.24l-.48.36v.24l-.6.48v.24l-.48.36v.24l-.24.12-.24.36h-.12v.24l-.6.479v.24l-.6.48v.24l-.72.6v.24l-.84.72v.24l-.84.72v.24l-.96.839v.24l-1.2 1.08v.24l-1.68 1.56v.24L57.795 211c-.6.6-1.811 2.176-2.639 2.4a2.492 2.492 0 00-.84-.6l-.12-.24h-.24l-.12-.24H53.6l-.12-.24h-.24l-.24-.36h-.24l-.12-.24h-.24v-.12l-.36-.12-.12-.24h-.24l-.24-.36h-.24l-.12-.24h-.24v-.12l-.36-.12-.12-.24h-.24l-.24-.36h-.24v-.12l-.36-.12-.12-.24h-.24l-.24-.36h-.24l-.12-.24h-.24v-.12l-.36-.12-.12-.24h-.24l-.24-.359h-.24l-.12-.24h-.24v-.12l-.36-.12-.12-.24h-.24l-.24-.36h-.24l-.12-.24h-.24v-.121l-.36-.12-.12-.24h-.24l-.24-.36h-.24v-.12l-.36-.12-.12-.24h-.24l-.24-.36h-.24l-.12-.24h-.24v-.12l-.36-.12-.12-.24h-.24l-.24-.36H41l-.12-.24h-.24v-.12l-.36-.119-.12-.24h-.24l-.24-.36h-.24l-.12-.24h-.24v-.12l-.36-.12-.12-.24h-.24l-.24-.36h-.24v-.12l-.36-.12-.12-.24h-.24l-.24-.36h-.24l-.12-.24h-.24v-.121l-.36-.12-.12-.24h-.24l-.24-.36h-.24l-.12-.24h-.24v-.12l-.36-.12-.12-.24h-.24l-.24-.36h-.24l-.12-.239h-.24v-.12l-.36-.12-.12-.24h-.24l-.24-.36H32v-.121l-.36-.12-.12-.24h-.24l-.24-.36h-.24l-.12-.24-.36-.12V196h-.24l-.12-.24h-.24l-.24-.36h-.24l-.12-.24-.36-.12v-.12h-.24l-.12-.24h-.24l-.24-.36a3.267 3.267 0 01-1.2-.84l1.56-1.439v-.241l1.68-1.56V190l1.44-1.32v-.24l1.32-1.2V187l1.2-1.08v-.24l1.08-.96v-.24l.96-.84v-.239l.96-.84v-.24l.84-.72v-.24l.84-.72v-.24l.84-.72v-.24l.72-.6v-.24l.72-.6v-.24l.36-.24.24-.36h.12v-.24l.72-.6v-.24l.24-.12.24-.36h.12v-.24l.6-.48v-.24l.72-.6v-.24l.24-.12v-.119l.24-.12v-.24l.6-.48v-.24l.6-.48v-.24l.6-.48v-.24l.48-.36v-.24l.24-.12v-.12l.24-.12v-.24l.6-.48v-.24l.48-.359v-.24l.48-.36v-.24l.48-.36v-.24l.48-.36v-.24l.48-.36v-.24l.48-.36v-.24l.36-.24v-.24l.48-.36v-.24l.48-.36v-.239l.24-.12.12-.36.48-.36v-.24l.36-.24v-.24l.36-.24v-.24l.48-.36v-.24l.36-.24v-.24l.36-.24v-.24l.36-.24v-.24l.48-.36v-.24l.36-.239v-.24l.36-.24v-.24l.36-.24v-.24l.36-.24v-.24l.36-.24.12-.36.24-.12v-.24l.24-.12v-.24l.36-.24v-.24l.36-.24v-.24l.36-.24v-.24l.36-.24v-.239l.24-.12v-.24l.24-.12.12-.36.36-.24v-.24l.24-.12v-.24l.36-.24v-.24l.24-.12v-.24l.24-.12.12-.36.36-.24v-.24l.24-.12v-.24l.36-.24v-.24h.12l.12-.36.24-.12v-.239l.36-.24v-.24l.24-.12v-.24l.36-.24v-.24l.24-.12v-.24h.12l.12-.36.24-.12v-.24l.36-.24v-.24h.12l.12-.36.24-.12v-.24l.36-.24v-.24l.24-.12.12-.36h.12v-.239l.24-.12v-.24l.24-.12v-.24l.24-.12v-.24l.24-.12v-.24l.36-.24v-.24l.24-.12.12-.36h.12v-.24l.24-.12v-.24l.24-.12v-.24l.24-.12v-.24l.24-.12v-.24l.24-.12v-.24l.24-.12v-.239l.24-.12v-.24l.24-.12v-.24l.24-.12v-.24l.24-.12v-.24l.24-.12.12-.48.24-.12v-.24l.24-.12v-.24h.12l.12-.36.24-.12v-.24l.24-.12.12-.36h.12l.12-.48.24-.12v-.24l.24-.119v-.24l.24-.12v-.24l.24-.12v-.23h.12v-.24l.24-.12v-.24l.24-.12.12-.48.24-.12v-.24l.24-.12v-.24l.24-.12v-.24h.12v-.24l.24-.12v-.24l.24-.12.12-.48h.12l.12-.36.24-.119v-.241h.12v-.24l.24-.12.12-.48H77l.12-.36.24-.12v-.24h.12v-.24l.24-.12.12-.48h.12l.12-.36.24-.12v-.24h.12v-.24l.24-.12.12-.48.24-.12.12-.48.24-.119.12-.48.24-.12.12-.48.24-.12.24-.72.24-.12v-.24h.12v-.241l.24-.12.12-.48.24-.12.12-.48.24-.12.24-.72.24-.12v-.24h.12v-.24l.24-.12.24-.72.24-.12v-.24h.12v-.24h.12v-.24l.24-.12.24-.72.24-.12v-.24h.12v-.24h.12v-.24l.24-.12v-.24h.12v-.24h.12v-.24h.12v-.24l.24-.12v-.239h.12v-.24h.12v-.24l.24-.12v-.24h.12v-.24h.12v-.24h.12v-.241l.24-.12v-.24h.12v-.24h.12v-.24h.12v-.24l.24-.12v-.24h.12v-.24h.12v-.24h.12v-.24h.12v-.24l.24-.12v-.24h.12v-.24h.12v-.24h.12v-.24h.12v-.24l.24-.12v-.24h.12v-.24h.12v-.24h.12v-.24h.12v-.24h.12v-.24h.12v-.24l.24-.12v-.24h.12v-.24h.12v-.24h.12v-.24h.12v-.24h.12l.12-.48.24-.12.12-.48h.12v-.239h.12v-.241h.12v-.24h.12v-.24h.12l.12-.48h.12l.24-.72.24-.12v-.24h.12v-.24h.12v-.24h.12v-.24H92v-.24h.12l.24-.72h.12l.24-.72h.12l.12-.479h.12l.12-.48h.12v-.24h.12v-.24h.12v-.24h.12v-.24h.12V98.1h.12v-.24h.12v-.24h.12v-.24h.12l.24-.72h.12l.12-.48h.12l.12-.48h.12v-.24h.12v-.24h.12v-.24h.12v-.24h.12v-.24h.12l.24-.72h.12l.24-.72h.12v-.36h.12l.24-.72h.12v-.24h.12v-.24h.12v-.24h.12v-.24h.12v-.24h.12v-.24h.12v-.36h.12l.12-.48H98v-.24h.12v-.24h.12l.24-.72h.12v-.36h.12v-.24h.12v-.24h.12v-.24h.12l.24-.72h.12v-.36h.12v-.24h.12l.24-.72h.12v-.36h.12v-.24h.12l.24-.72h.12v-.36h.12v-.24h.12l.24-.72h.12v-.36h.12v-.24h.12l.12-.48h.12v-.36h.12v-.24h.12l.12-.48h.12v-.36h.12l.12-.48h.119v-.36h.12v-.24h.12l.12-.48h.12v-.36h.12l.12-.48h.12v-.36h.12l.12-.48h.12v-.36h.12l.12-.48h.12v-.36h.12l.12-.48h.12v-.36h.12v-.24h.12v-.36h.12l.12-.48h.12v-.36h.12l.12-.48h.12v-.36h.12v-.24h.12v-.36h.12l.12-.48h.12v-.36h.12v-.24h.12l.12-.6h.12v-.36h.12v-.24h.12v-.36h.12v-.24h.12v-.36h.12l.12-.48h.12v-.36h.119v-.24h.12l.12-.6h.12v-.36h.12v-.24h.12l.12-.72h.12v-.24h.12v-.36h.12v-.24h.12l.12-.6h.12v-.36h.12v-.24h.12l.12-.72h.12v-.24h.12v-.36h.12v-.24h.12l.12-.72h.12v-.24h.12v-.35h.12v-.24h.12v-.36h.12v-.36h.12v-.24h.12l.12-.72h.12v-.24h.12l.12-.72h.12v-.24h.12v-.36h.12v-.36h.12v-.24h.12l.24-1.08h.12v-.24h.12l.119-.72h.12v-.36h.12v-.24h.12l.12-.72h.12l.12-.72h.12v-.24h.12l.24-1.08h.12v-.36h.12v-.24h.12l.24-1.08h.12v-.36h.12v-.36h.12v-.36h.12v-.36h.12v-.24h.12l.12-.72h.12v-.36h.12v-.36h.12v-.36h.12v-.36h.12v-.36h.12l.12-.72h.12l.24-1.08c1.537-3.85 2.535-8.173 3.959-12.117v-.48h.12V30.8h.12v-.36h.12l.12-.84h.12l.24-1.2h.12l.36-1.68h.12v-.48h.12v-.36h.12v-.48c.886-2.454 1.4-5.319 2.279-7.8v-.48h.12v-.48h.12v-.48h.12v-.48h.12v-.36h.12v-.48h.12v-.48h.12v-.48h.12v-.48h.12l.12-.96h.12l.12-.96h.12zm99.819 102.7v15.237h118.9l.36-15.237H226.24zm0 41.032v16.077h118.9l.36-16.077H226.24zm-80.5 59.868h282.539v31.913H256.834l-.6 1.08-.24.12v.24l-.24.12v.24h-.12l-.12.36-.24.12v.24l-.36.24v.24l-.36.24v.239l-.359.24v.24l-.36.24v.24l-.36.24v.24l-.48.36v.24l-.48.36v.24l-.48.36v.24l-.24.12-.24.36h-.12v.24l-.6.48v.24l-.72.6v.24l-.719.6v.24l-.84.72v.24l-.96.84v.24l-1.08.96v.24l-1.2 1.079v.24l-.719.6c-.4.4-.682.917-1.08 1.32a8.315 8.315 0 00-1.44 1.44H409.2l-.12 2.519h-.12v1.32c-.02.231-.12.24-.12.24v1.439h-.12v1.32h-.12v1.32h-.12v1.32h-.12v1.319c-.4 1.391-.2 3.3-.6 4.679l-.24 3.36h-.12v1.08h-.12v.959h-.12v1.08c-.407 1.409-.315 3.28-.72 4.679l-.119 1.8h-.121l-.12 1.8c-.362 1.23-.362 2.861-.72 4.08l-.12 1.679c-.538 1.811-.541 4.076-1.08 5.879l-.12 1.44c-.367 1.214-.474 2.754-.84 3.959v.72c-.226.737-.368 1.778-.6 2.519v.6c-.224.711-.377 1.688-.6 2.4v.6c-.607 1.925-.828 4.22-1.439 6.118v.6h-.12v.48h-.12v.6c-.666 2.045-.991 4.456-1.68 6.479v.48h-.12v.479h-.12v.48h-.12v.48c-.706 1.957-1.1 4.284-1.8 6.239l-.48 2.279c-.67 1.857-1.134 4.028-1.8 5.879v.48h-.12v.36h-.12v.48h-.12v.36h-.12v.36h-.12l-.24 1.2h-.12l-.24 1.2h-.12l-.24 1.2h-.12l-.48 2.04c-1.177 3.232-2.136 6.762-3.479 9.838l-.96 2.879h-.12v.24h-.12v.36h-.12l-.12.6h-.12v.24h-.12v.36h-.12l-.119.48h-.12v.36h-.12l-.12.479h-.12l-.12.6h-.12l-.24.72h-.12v.24h-.12v.24h-.12v.24h-.12v.24h-.12v.24h-.12v.24h-.12v.24h-.12v.24h-.12v.24l-.24.12-.24.72-.24.12v.24h-.12v.239h-.12l-.12.36-.24.12v.24l-.24.12v.24h-.12l-.12.36-.24.12v.24l-.36.24v.24l-.359.24v.24l-.48.36v.24l-.72.6v.24l-1.92 1.8-1.32 1.44h-.24l-.479.6h-.24l-.36.48h-.24l-.36.48h-.24l-.24.36h-.24l-.24.36h-.24l-.12.239h-.24l-.12.24h-.24l-.12.24h-.24l-.12.24h-.24l-.12.24h-.24l-.12.24h-.24v.12h-.239l-.12.24-.48.12-.12.24-.72.24-.12.24h-.24v.12h-.24v.12h-.24v.12h-.24v.12h-.24v.12l-.48.12-.12.24h-.24v.12h-.36v.12h-.24v.12h-.24v.12h-.24v.12l-.719.24v.12h-.36v.12h-.24v.12h-.24v.12h-.24v.112h-.36v.12h-.24v.12h-.36v.12h-.24v.12l-5.039 1.68-4.559.96h-.96v.12h-1.08v.12h-1.8v.12a8.573 8.573 0 01-2.76-.12h-1.8v-.12h-1.08v-.12h-.96v-.12h-.96v-.12h-.839v-.12h-.96v-.12h-.96v-.12h-.95v-.12h-.96v-.12h-.959v-.12h-.96v-.12h-.96v-.12h-.84v-.12h-.96v-.12h-.961c-1.708-.494-3.939-.349-5.638-.84h-.962v-.12l-3.839-.36v-.12h-.961v-.12h-.96v-.12h-.96v-.119h-.84v-.12h-.959v-.12h-.96c-1.709-.5-3.94-.35-5.639-.84h-.96v-.12h-.96c-1.144-.331-2.695-.268-3.839-.6-.344-.1-.648 0-.96-.12a2.492 2.492 0 00-.24-.96h-.123v-.36h-.12v-.36h-.12v-.36h-.12v-.36h-.12v-.361h-.12v-.359h-.119v-.36h-.12v-.36h-.12v-.36h-.12v-.24h-.121l-.12-.72h-.12v-.36h-.12v-.36h-.12v-.36h-.12v-.36h-.12v-.361h-.12l-.24-1.079h-.12v-.24h-.12v-.36h-.12v-.36h-.12v-.36h-.12v-.36h-.12v-.36h-.12v-.36h-.12v-.36h-.12l-.12-.72h-.12v-.24h-.12l-.12-.72h-.12v-.359h-.12v-.36h-.12v-.36h-.12v-.36h-.12l-.24-1.08h-.12v-.24h-.12l-.6-2.16h-.119l-.24-1.079h-.12v-.24h-.12l-.12-.72h-.12v-.36h-.12v-.36h-.12v-.36h-.12v-.36h-.12v-.36h-.12v-.36h-.12v-.36h-.12v-.36h-.12v-.24h-.12v-.359h-.12v-.36h-.12v-.36h-.12v-.36h-.12v-.36c-.443-1.11-.875-2.365-1.32-3.479v-.36h-.12v-.36h-.12v-.36h-.12v-.36h-.12v-.24h-.12v-.36h-.12v-.36h-.12v-.36h-.12l-.12-.72h-.12c-.241.359-.106.053-.359.24l-.36.48h-.24l-.36.48h-.24l-.36.48h-.24l-.36.48h-.24l-.36.48h-.24l-.24.36h-.24l-.36.48h-.24l-.12.24-.359.12-.36.479h-.24l-.24.36h-.24l-.36.48h-.24l-.24.36h-.24l-.24.36h-.24l-.24.36h-.24l-.24.36h-.24l-.36.48h-.24l-.24.36-.36.12-.119.24h-.24l-.12.24h-.24l-.12.24-.36.12-.24.359h-.24l-.24.36h-.24l-.24.36h-.24l-.24.36h-.24l-.12.24h-.24l-.12.24-.36.12-.24.36h-.24l-.12.24h-.24l-.239.36h-.24l-.12.24h-.24l-.24.36h-.24l-.12.24h-.24l-.24.36h-.24l-.12.24h-.24l-.24.36h-.24v.12l-.36.12-.12.239h-.24l-.24.36h-.24v.12l-.36.12-.12.24h-.24l-.239.36h-.24l-.12.24h-.24v.12l-.36.12-.12.24h-.24l-.24.36h-.24l-.12.24-.36.12v.12h-.24l-.12.24h-.24l-.12.24h-.24l-.12.24h-.24l-.12.24h-.24l-.12.24h-.24l-.12.24h-.24l-.12.24h-.239v.12l-.36.12-.12.239h-.24l-.12.24h-.24l-.12.24h-.24l-.12.24h-.24l-.12.24h-.24l-.12.24h-.24l-.12.24h-.24v.12l-.36.12-.12.24h-.24l-.12.24-.36.12v.12l-.48.12-.12.24h-.239l-.12.24h-.24l-.12.24h-.24l-.12.24-.48.12-.12.24h-.24l-.12.24h-.24l-.12.24-.48.12-.12.24h-.24l-.12.239-.48.12v.12l-.36.12-.12.24-.48.12v.12l-.359.12-.12.24h-.24v.12h-.24l-.12.24-.48.12v.12l-.36.12-.12.24-.48.12-.12.24-.48.12-.12.24-.48.12v.12l-.36.12-.12.24-.48.12-.12.24-.479.12-.12.24-.72.24-.12.24H253v.12h-.24l-.12.239-.48.12-.12.24-.48.12-.12.24-.72.24-.12.24h-.24v.12h-.24l-.12.24-.719.24-.12.24h-.24v.12h-.24v.12h-.24l-.12.24-.72.24-.12.24-.72.24-.12.24h-.241v.12h-.24v.12h-.24v.12h-.24l-.12.24-.72.24-.12.24h-.239v.12h-.24v.121H244v.12h-.24l-.12.24-.48.12v.12h-.24v.12h-.24v.12h-.24l-.12.24h-.24v.12h-.24v.12h-.24v.12h-.24v.12h-.24l-.12.24h-.24v.12h-.24v.12h-.24v.12h-.24v.12l-.479.12-.12.24h-.241v.12h-.24v.12h-.24v.12h-.24v.12h-.24v.12l-.48.12-.12.24h-.24v.12h-.24v.12h-.24v.12h-.24v.12h-.24v.12h-.24v.12l-.72.24-.12.239-.48.12v.12h-.239v.12h-.241v.12h-.24v.12h-.24v.12l-.48.12v.12l-.48.12v.12l-.48.12v.12h-.24v.12H232v.12h-.24V396h-.24v.12l-.72.24v.12l-.72.24v.12l-.479.12v.12l-.48.12v.12h-.24v.12h-.24v.12h-.241v.12h-.24v.12h-.24v.12l-.72.24a6.216 6.216 0 01-2.04.959l-2.039-2.159h-.24l-1.2-1.32-.6-.48-.12-.24h-.24l-2.039-2.159h-.24l-2.04-2.16h-.24l-1.8-1.919-.36-.12-2.04-2.16h-.24l-2.039-2.159h-.24l-1.92-2.04h-.24L206.2 381l-.72-.6-.239-.36h-.24l-1.92-2.039-.36-.12-.12-.24-1.08-.96v-.24l3.12-1.44v-.12l.48-.12v-.12h.359v-.119h.24v-.12l.48-.12v-.12l.48-.12v-.12h.24v-.12h.24v-.12h.24v-.12h.24v-.12h.24v-.12h.24v-.12h.36v-.12l.48-.12v-.12l.72-.24v-.12l.48-.12v-.12l.479-.12v-.12l.48-.12v-.12h.24v-.12h.24v-.12h.24v-.12h.24v-.12h.24v-.12h.24v-.12h.24v-.12h.24v-.12h.24v-.12h.24v-.12h.24v-.12H214v-.12h.24v-.12h.24v-.12l.72-.24v-.12l.719-.239v-.12l.48-.12v-.12l.48-.12v-.12h.24v-.12h.24v-.12h.24v-.12h.24v-.12h.24v-.12h.24v-.12h.24v-.12h.24v-.12h.24v-.12h.24v-.12h.24v-.12h.24l.12-.24h.24v-.12h.239v-.12h.24v-.12h.24v-.12l.48-.12v-.12h.24v-.12h.24v-.12h.24v-.12h.24v-.12l.48-.12.12-.24h.24v-.12h.24v-.12h.24v-.12h.24v-.12h.24v-.12h.24v-.12h.24v-.12h.24v-.12h.24l.119-.239.72-.24v-.12h.24v-.12h.24v-.12h.24v-.12h.24l.12-.24h.24v-.12h.24v-.12h.24v-.12h.24v-.12h.24v-.12h.24l.12-.24h.24v-.12H229v-.12h.24v-.12h.24v-.12h.24l.12-.24h.239v-.12h.24v-.12h.24v-.12h.24v-.12h.24l.12-.24h.24v-.12h.24v-.12h.24v-.12h.24l.12-.24h.24v-.12h.24v-.12h.24v-.12h.24l.12-.24h.24v-.12h.24v-.119h.24v-.12h.24l.12-.24.719-.24.12-.24.72-.24v-.12h.24l.12-.24.72-.24.12-.24.72-.24.12-.24.48-.12.12-.24.72-.24.12-.24.719-.24.12-.24.48-.12.12-.24.48-.12.12-.24.72-.24.12-.239.48-.12.12-.24.48-.12.12-.24.48-.12.12-.24.48-.12.119-.24.48-.12.12-.24.48-.12.12-.24.48-.12v-.12l.36-.12.12-.24.48-.12.12-.24.48-.12v-.12l.36-.12.12-.24.48-.12v-.12l.36-.12.12-.24.479-.12v-.12l.36-.12.12-.239h.24v-.12h.24l.12-.24h.24l.12-.24.48-.12.12-.24h.24l.12-.24h.24l.12-.24h.24l.12-.24.48-.12.12-.24h.24v-.12l.36-.12.12-.24h.239l.12-.24.36-.12v-.12l.48-.12.12-.24h.24l.12-.24h.24l.12-.24h.24l.12-.24h.24v-.12l.36-.12.12-.24h.24l.12-.24h.24l.12-.239h.24l.12-.24h.24l.12-.24h.24v-.12l.359-.12.12-.24h.24l.24-.36h.24l.12-.24h.24v-.12l.36-.12.12-.24h.24l.12-.24h.24l.24-.36h.24v-.12l.36-.12.12-.24h.24l.24-.36h.24v-.12l.36-.12.12-.24h.24l.239-.36h.24l.12-.24h.24l.24-.359h.24l.12-.24h.24l.24-.36h.24l.12-.24h.24l.12-.24.36-.12.24-.36h.24l.12-.24h.24l.24-.36h.24l.24-.36h.24l.239-.36h.24l.24-.36h.24l.24-.36h.24l.24-.36h.24l.24-.36h.24l.24-.36h.24l.36-.479h.24l.24-.36h.24l.24-.36h.24l.36-.48h.24l.359-.48h.24l.24-.36h.24l.36-.48h.24l.36-.48h.24l.36-.48h.24l.48-.6h.24l.36-.479h.24l.48-.6h.24l.479-.6h.24l.48-.6h.24l.6-.72h.24l.6-.72h.24l.72-.84h.24l.72-.839h.239l.96-1.08.36-.12 1.08-1.2h.24l1.44-1.56h.12l.12-.24h.24l2.759-2.879 2.759-2.639v-.234l.24-.12v-.12l1.56-1.44v-.24l1.08-.96v-.24l.96-.84v-.24l.839-.719v-.24l.6-.48v-.24l.72-.6v-.24l.6-.48v-.24l.24-.12v-.12l.24-.12v-.24l.48-.36v-.24l.48-.36v-.24l.48-.359v-.24l.36-.24v-.24l.36-.24v-.242l.479-.36.12-.36.24-.12v-.24l.24-.12v-.24l.24-.12.12-.36.36-.24v-.24l.24-.12v-.24l.36-.24v-.24l.24-.12v-.24l.36-.239v-.24l.24-.12.12-.36h.12v-.241l.24-.12v-.24l.24-.12v-.24l.24-.12v-.24l.24-.12v-.24l.24-.12v-.24l.24-.12v-.24l.239-.12v-.24l.24-.12.12-.48.24-.12v-.24l.24-.12v-.239h.12v-.24l.24-.12.12-.48.24-.12.12-.48.24-.12.12-.48.24-.12.24-.72.24-.12.12-.48c.174-.32.434-.609.6-.96h-30.234a5.7 5.7 0 01-.48.72l-.36.24v.24l-.36.24v.24l-.48.36v.24l-.48.36v.24l-.48.36v.24l-.479.36v.24l-.6.48v.239l-.6.48v.24l-.36.24v.12l-.24.12v.24l-.72.6v.24l-.36.24-.24.36h-.12v.24l-.84.72v.24l-.959.839v.24l-1.2 1.08v.24l-1.2 1.08c-.4.409-.678.918-1.08 1.32l-2.159 2.039v.24l-1.08.96-.96 1.08h-.24l-.72.84a20.115 20.115 0 01-2.4 2.159l-.84.96-.48.36-.12.24h-.24l-1.08 1.2h-.24l-.839.959h-.24l-.72.84h-.24l-.72.84h-.24l-.6.72h-.24l-.6.72h-.24l-.479.6h-.24l-.48.6h-.24l-.48.6h-.24l-.48.6h-.24l-.12.24h-.12l-.12.24h-.24l-.12.24h-.12l-.12.24h-.24l-.36.48h-.24l-.12.24h-.12l-.12.24h-.239l-.36.48h-.24l-.36.48h-.24l-.24.36h-.24l-.24.36h-.24l-.36.479h-.24l-.24.36-.36.12-.12.24h-.235l-.24.36h-.24l-.24.36h-.24l-.239.36h-.24l-.24.36h-.24l-.24.36h-.241l-.24.36-.36.12-.12.24h-.24l-.12.24h-.24l-.12.24-.36.12-.24.36h-.24l-.12.24h-.24l-.24.359h-.24v.12l-.36.12-.12.24h-.239l-.24.36h-.24l-.12.24h-.24l-.24.36h-.24l-.12.24h-.24v.12l-.36.12-.12.24h-.24l-.24.36h-.24l-.12.24-.36.12v.12h-.24l-.12.24h-.241l-.12.24h-.24l-.12.24h-.24a26.7 26.7 0 01-.119.24h-.24l-.12.24h-.24l-.12.24h-.241l-.12.239h-.24l-.12.24h-.24l-.12.24h-.24l-.12.24h-.24l-.12.24H232l-.12.24h-.24l-.12.24h-.24l-.12.24-.48.12v.12l-.36.12-.12.24h-.24a26.7 26.7 0 01-.119.24l-.36.12v.12l-.48.12-.12.24h-.24l-.12.24-.48.12-.12.24h-.24l-.12.24-.48.12v.12l-.36.12-.12.24h-.24v.12h-.24l-.12.239-.48.12v.12l-.36.12-.119.24h-.242v.12h-.24l-.12.24-.48.12-.12.24-.48.12-.12.24-.48.12-.12.24-.48.12-.12.24-.48.12-.12.24-.72.24-.12.24h-.24v.12h-.239l-.12.24-.72.24-.12.24h-.24v.12h-.24l-.12.24-.72.24-.12.239h-.24v.12h-.24v.12H217v.12h-.24l-.12.24-.72.24-.12.24h-.24v.12h-.24v.12h-.239v.12h-.24l-.12.24h-.24v.12h-.24v.12H214v.12h-.24l-.12.24-.48.12v.12l-.72.24-.12.24h-.24v.12h-.24v.12h-.24v.12h-.24v.12h-.24v.12h-.24l-.12.24h-.24v.12h-.239v.12h-.24v.12h-.241v.12h-.24v.12h-.24v.12h-.24l-.12.24-.48.119v.12h-.24v.12H208v.12h-.24v.12h-.24v.12h-.24v.12h-.24v.12h-.24v.12h-.24v.12h-.24l-.12.24h-.24v.12h-.24v.12h-.24v.12h-.239v.12l-.72.24v.12l-.48.12v.12l-.48.12v.12h-.24v.12h-.24v.12h-.24v.12h-.24v.12h-.24v.12h-.24v.12h-.24v.12h-.24v.12h-.24v.12l-.48.12v.12l-.479.12v.12h-.24v.12h-.24v.12h-.24v.12h-.24v.12l-.48.12v.119h-.24v.12h-.36v.12l-.72.24v.12h-.24v.12h-.24v.12h-.24v.12h-.24v.12h-.24v.12h-.24v.12h-.24v.12h-.359v.12l-.48.12v.12h-.24v.12h-.24v.12l-.72.24v.12h-.36v.12h-.24v.12h-.24v.12l-.72.24v.12h-.36v.12h-.24v.12h-.24v.12l-.72.24v.12h-.359v.12h-.24v.12l-.48.12v.12h-.36v.12h-.24v.12l-.72.24v.119h-.36v.12h-.24v.12l-.48.12v.12h-.36v.12h-.24v.12l-.48.12v.12h-.36v.12l-.479.12v.12h-.36v.12l-.48.12v.12h-.36v.12h-.24v.12l-.48.12v.12h-.36v.12l-.48.12v.12h-.36v.12l-.48.12v.12l-1.2.36v.12h-.24v.12h-.36v.12l-.48.12v.12h-.36v.12h-.24v.12h-.36v.12l-.48.12v.12l-2.159.719v.12l-.48.12v.12h-.36v.12h-.24v.12h-.36v.12h-.24v.12l-.6.12v.12h-.36v.12h-.24v.12h-.36v.12h-.24v.12h-.36v.12h-.24v.12l-.72.12v.12h-.239v.12h-.36v.12h-.24v.12l-.6.12v.12h-.36v.12h-.24v.12l-.72.12v.12h-.24v.12l-1.2.36-.6-.72h-.239l-.6-.72h-.24l-.6-.72h-.24l-.6-.72h-.24l-.72-.84h-.24l-.6-.719h-.24l-.6-.72h-.24l-.6-.72h-.24l-.6-.72h-.24l-.6-.72h-.24l-.72-.84h-.24l-.24-.36-.36-.24v-.119h-.24l-.6-.72h-.24l-.24-.36-.36-.24v-.12h-.24l-.6-.72h-.24l-.24-.36-.36-.24v-.12h-.24l-.72-.84h-.24l-.6-.72h-.228l-.6-.719h-.24l-.6-.72h-.24l-.6-.72h-.24l-.6-.72h-.24l-.72-.84h-.24l-.6-.72h-.24l-.6-.72h-.24l-.6-.719h-.24l-.6-.72h-.24l-.6-.72h-.24l-.72-.84h-.24l-.6-.72h-.24l-.6-.72h-.24l-.72-.839a6.216 6.216 0 001.32-.48h.36v-.12h.36v-.12h.359v-.12h.36v-.12h.36v-.12h.36v-.12h.36v-.12h.36v-.12h.36v-.12h.36c1.538-.617 3.3-1.143 4.8-1.8h.36v-.12h.36v-.12h.36v-.12h.36v-.12h.24v-.12l.719-.12v-.12l.72-.12v-.12h.24v-.12l.72-.12v-.119h.24v-.12l1.08-.24v-.12h.24v-.12l.72-.12v-.12h.24v-.12l.719-.12v-.12h.24v-.12h.36v-.12h.36v-.12h.24v-.12h.36v-.12h.24v-.12l.72-.12v-.12h.24v-.12h.36v-.12h.24v-.12l.6-.12v-.12l.72-.12v-.12h.239v-.12h.36v-.12h.24v-.12l.6-.12v-.12h.36v-.12h.24v-.12h.36v-.12l.6-.12v-.12h.24v-.12h.36v-.12l.48-.12v-.12h.36v-.12h.24v-.119h.359v-.12h.24v-.12h.36v-.12l.48-.12v-.12l.6-.12v-.12h.36v-.12l.48-.12v-.12h.36v-.12l.48-.12v-.12h.36v-.12l.48-.12v-.12h.36v-.12l.479-.12v-.12h.36v-.12l.48-.12v-.12h.36v-.12h.24v-.12l.48-.12v-.12h.36v-.12h.24v-.12l.48-.12v-.12h.36v-.12h.24v-.12l.48-.12v-.12h.36v-.12h.239v-.12l.72-.24v-.12h.36v-.12h.24v-.119l.72-.24v-.12h.36v-.115h.24v-.12h.24v-.12h.24v-.12l.72-.24v-.12h.36v-.12l.719-.24v-.12h.24v-.12h.24v-.12h.24v-.12h.24v-.12l.48-.12v-.12h.36v-.12l.48-.12v-.12l.72-.24v-.12l.48-.12v-.12l.48-.12v-.12h.24v-.12h.24v-.12h.24v-.12h.239v-.12h.24v-.12h.24v-.12h.24v-.12h.24v-.12l.72-.239v-.12l.48-.12v-.12l.48-.12v-.12h.24v-.12h.24v-.12h.24v-.12h.24v-.121h.24v-.12h.24v-.12h.24v-.12h.24v-.12h.24l.119-.24h.24v-.12h.24v-.12h.24v-.12h.24v-.12h.24v-.12h.24v-.12h.24v-.12l.48-.12.12-.24h.24v-.12h.24v-.12h.24v-.12h.24v-.12l.48-.12.12-.24h.24v-.12h.24v-.12h.24v-.12h.24v-.12h.239l.12-.24h.24v-.12h.24v-.12h.24v-.119h.24v-.12h.24l.12-.24.72-.24.12-.24h.24v-.121h.24v-.12h.24v-.12h.24l.12-.24.72-.24.12-.24.719-.24.12-.24.72-.24.12-.24.48-.12.12-.24.72-.24.12-.24.48-.12.12-.24.48-.12.12-.24.48-.12.12-.24.479-.119.12-.24h.24v-.12h.24v-.12l.36-.12.12-.24h.24v-.12h.24l.12-.24.48-.12v-.121l.36-.12.12-.24.48-.12v-.12l.36-.12.12-.24.48-.12.12-.24h.24l.12-.24h.24l.119-.24.48-.12.12-.24h.24l.12-.24h.24l.12-.24h.24l.12-.24.48-.12.12-.24h.24l.12-.239h.24l.12-.24h.24l.12-.24H214l.12-.24h.24v-.12l.36-.12.12-.24h.24l.12-.24h.239l.12-.24h.24v-.12l.36-.12.12-.24h.24l.24-.36H217l.12-.24h.24v-.12l.36-.12.12-.24h.24l.24-.36h.24v-.121l.36-.12.12-.24h.24l.24-.36h.24v-.12l.36-.12.119-.239h.24l.12-.24.36-.12.24-.36h.24l.12-.24h.24l.24-.36h.24l.12-.24h.24l.12-.24.36-.12.24-.36h.24l.24-.36h.24l.24-.36h.24l.24-.36h.24l.239-.36h.24l.12-.24.36-.12.24-.36h.24l.36-.479h.24l.24-.36h.24l.24-.36h.24l.36-.48h.24l.36-.48h.24l.12-.24h.12l.12-.24h.24l.359-.48h.24l.12-.24h.12l.12-.24h.24l.36-.48h.24l.48-.6h.24l.36-.48h.24l.48-.6h.24l.6-.72h.24l.479-.6h.24l.72-.84h.24l.36-.48h.12l.12-.24h.24l.12-.24a4.28 4.28 0 011.08-.84v-.12h-32.512v.12l-.479.12-.12.24h-.24l-.12.24h-.24v.12h-.24l-.12.24-.48.12-.12.24h-.24v.12h-.24v.12l-.36.12-.12.24h-.24v.12h-.24l-.12.24-.48.12-.12.24-.48.12-.12.24-.479.12-.12.24-.48.12-.12.24-.48.12-.12.24h-.24v.12h-.24l-.12.24-.48.119-.12.24-.72.24-.12.24-.48.12-.12.24-.48.12-.12.24-.719.24-.12.24-.72.24-.12.24-.48.12-.12.24-.72.24-.12.24-.72.24-.12.24h-.24v.12h-.24v.12h-.24v.12h-.24l-.119.24-.72.24-.12.239h-.24v.12h-.24v.12h-.24v.12h-.24l-.12.24h-.24v.12h-.24v.12h-.24v.12h-.24l-.12.24h-.24v.12h-.24v.12h-.24v.12h-.24v.12h-.24l-.12.24h-.24v.12h-.24v.12h-.239v.12h-.24v.12h-.24l-.12.24h-.24v.12h-.24v.12h-.24v.12h-.24v.12h-.24v.12l-.48.12-.12.24h-.24v.12h-.24v.12h-.24v.12h-.24v.12h-.24v.12h-.24v.12h-.24v.12h-.24v.12h-.24l-.12.24-.719.239v.12l-.48.12v.12l-.48.12v.12l-.48.12v.12h-.24v.12h-.24v.12h-.24v.12h-.24v.12l-.72.24v.12l-.48.12v.12l-.48.12v.12h-.239v.12h-.24v.12h-.24v.12h-.24v.12h-.24v.12l-.72.24v.12l-.48.12v.12l-.6.12v.12h-.24v.12h-.24v.12h-.24v.12h-.24v.12l-.72.24v.12h-.36v.12h-.239v.12h-.24v.119l-.72.24v.12h-.36v.12h-.24v.12l-.48.12v.12h-.36v.12h-.24v.12h-.24v.12h-.24v.12h-.36v.12h-.24v.12l-.48.12v.12h-.36v.12l-.479.12v.12h-.36v.12l-.48.12v.12h-.36v.12h-.24v.12h-.36v.12l-.48.12v.12h-.36v.12h-.24v.12l-.6.12v.12h-.36v.12h-.24v.12h-.36v.12h-.239v.12l-.6.12v.12l-.72.12v.12h-.24v.12h-.36v.12h-.24v.119l-1.08.24v.12h-.24v.12l-.72.12c-.522.209-1.157.512-1.679.72l-.72.12v.12h-.36v.12h-.355v.12h-.36v.12h-.36v.12h-.48v.12h-.36v.12h-.36v.12h-.36v.12l-1.2.24v.12l-.84.12v.12l-.96.12a5.335 5.335 0 01-1.2.36 5.131 5.131 0 00-.6-.6v-.24l-1.079-.96-2.52-2.639-.96-.84v-.24l-1.2-1.08-2.28-2.4-1.2-1.08a27.773 27.773 0 00-3.119-3.24q-1.26-1.378-2.519-2.759a32.191 32.191 0 01-3.6-3.719l-.96-.84q-1.258-1.32-2.519-2.639a10.433 10.433 0 01-1.8-1.92h.12v-.12a3.117 3.117 0 001.08-.36l.84-.12v-.12h.36v-.12h.36v-.121h.36v-.12l1.559-.36v-.12l.72-.12v-.12h.36v-.12h.36v-.12h.36v-.12h.36v-.12h.36v-.12l.72-.12v-.12l3.959-1.2c3.646-1.461 7.616-2.53 11.158-4.079l.719-.12v-.121h.24v-.12l.72-.12v-.12h.24v-.12l.72-.12v-.12h.24v-.12l.72-.12v-.12h.24v-.12l.72-.12v-.12h.24v-.12h.36v-.12h.24v-.12l.6-.12v-.12l.72-.12v-.12h.24v-.12h.36v-.12h.24v-.12l.6-.12v-.12h.36v-.12h.24v-.12h.36v-.12h.24v-.12h.36v-.12l.6-.12v-.12h.239v-.12h.36v-.12l.48-.12v-.12h.36v-.12h.24v-.12l.6-.12v-.119h.36v-.12l.48-.12v-.12h.36v-.12h.24v-.12h.36v-.12l.48-.12v-.12h.36v-.12l.479-.12v-.12h.36v-.12l.48-.12v-.12h.36v-.12l.48-.12v-.12h.36v-.12l.48-.12v-.12h.36v-.121h.24v-.12l.48-.12v-.12h.36v-.12h.24v-.12h.239v-.12h.24v-.12h.36v-.12h.24v-.12h.24v-.12l.48-.12v-.12h.36v-.12h.24v-.12l.72-.24v-.12h.36v-.12h.24v-.12h.24v-.119h.24v-.12l.72-.24v-.12h.359v-.12l.72-.24v-.12h.24v-.12h.24v-.12h.24v-.12h.24v-.12h.24v-.12h.24v-.12h.36v-.12l.72-.24v-.12h.24v-.12h.24v-.12h.24v-.12h.24v-.12l.719-.24v-.12l.48-.12v-.12l.48-.12v-.12l.48-.12v-.12h.24v-.12h.24v-.12h.24v-.12h.24v-.12l.72-.24.12-.24h.24v-.12h.24v-.119h.24v-.12h.24v-.12h.24v-.12h.24v-.12h.239v-.12l.48-.12.12-.24h.24v-.12h.24v-.12h.24v-.12h.24v-.12l.48-.12.12-.24h.24v-.12h.24v-.12h.24v-.12h.24v-.12h.24l.12-.24.72-.24.12-.24h.24v-.12h.239v-.12h.24v-.12h.24l.12-.24.72-.24.12-.24h.24v-.12h.24l.12-.24.72-.24.12-.239.48-.12.12-.24.48-.12.12-.24.48-.12.12-.24.479-.12.12-.24h.24v-.12h.24v-.12l.36-.12.12-.24.48-.12.12-.24h.24l.12-.24h.24l.12-.24.48-.12.12-.24h.24v-.12l.36-.12.12-.24h.24l.12-.24.36-.12v-.12l.479-.12v-.12l.36-.12.12-.239h.24l.24-.36h.24l.12-.24.36-.12v-.12h.24l.12-.24h.24l.12-.24h.24l.24-.36h.24v-.12l.36-.12.12-.24h.24l.24-.36h.24l.12-.24h.239l.12-.24.36-.12.24-.36h.24l.24-.36h.24l.24-.36h.24l.24-.36h.24l.24-.359h.24l.24-.36h.24l.36-.48h.24l.36-.48h.24l.359-.48h.24l.36-.48h.24l.48-.6h.24l.6-.72H208l.6-.72h.24l.84-.959h.24l1.079-1.2.36-.12.12-.24.6-.48 1.92-2.04.96-.839v-.24l1.2-1.08.12-.36.84-.72v-.24l.36-.24v-.12h-71.742v-31.908zm200.719 79.783a3.083 3.083 0 01-.48.96v.24h-.12v.36h-.12v.24h-.12l-.12.48h-.12l-.12.48h-.12v.24h-.12v.24h-.119v.24h-.12v.24h-.12v.24h-.12v.24h-.12v.24h-.12v.237h-.12v.24h-.12v.24h-.12v.24l-.24.12v.24h-.12v.24h-.12v.24h-.12v.24h-.12v.24h-.12v.24h-.12v.24l-.24.12v.24h-.119v.24h-.121v.24h-.12v.24h-.12v.24l-.24.12v.24h-.12v.24h-.12v.24h-.12v.239l-.24.12-.24.72-.24.12v.24h-.12v.24l-.24.12-.24.72-.24.12-.12.48-.24.12-.12.48-.24.12-.12.48h-.12l-.12.36-.24.12v.239h-.12v.24l-.24.12-.12.48-.24.12v.24l-.24.12v.24l-.239.12-.12.48-.24.12v.24l-.24.12v.24l-.24.12v.24h-.12l-.12.36-.24.12v.24l-.24.12v.24l-.24.12v.24l-.24.12v.239l-.24.12v.24l-.24.12v.24l-.24.12v.24l-.24.12v.24h-.12l-.12.36-.24.12v.24l-.36.24v.24l-.24.12v.24l-.36.24v.24h-.12l-.12.36-.239.12v.24l-.24.12-.12.36-.36.239v.24l-.24.12v.24l-.24.12-.12.36-.36.24v.24l-.36.24v.24l-.36.24v.24l-.36.24v.24l-.36.24v.24l-.36.24v.24l-.48.36v.24l-.36.239v.24l-.479.36v.24l-.48.36v.24l-.48.36v.24l-.48.36v.24l-.24.12v.12l-.24.12v.24l-.48.36v.24l-.6.48v.24l-.6.479v.24l-.6.48v.24l-.719.6v.24l-.72.6v.24l-.84.72v.24l-.84.72v.24l-.96.839v.24l-1.08.96v.24h-.12l-.359.48-.96.84v.24l-1.8 1.679v.24l-6.119 6-2.639 2.76h-.24v.12l-.36.239-1.44 1.56h-.24l-1.319 1.44h-.24l-.84.96-.36.24v.12h-.24l-.96 1.079h-.24l-.84.96h-.24l-.719.84h-.24l-.72.84h-.24l-.24.36-1.08.84v.12h.24a2.458 2.458 0 00.96.24v.12h.6v.119h.48v.12h.48v.12l1.079.12v.12l1.56.24v.12h.6c2.556.831 5.59 1.094 8.158 1.92l1.68.24v.12h.6c.869.274 2.029.446 2.879.72l3 .48c2.159.678 4.783.78 6.958 1.439l1.44.12c1.264.384 2.916.463 4.2.84h.84c.685.2 1.7.277 2.4.48h.84v.12h.84v.12h.96a12.443 12.443 0 002.759.36c2.306.069 5.766.868 8.039.12l.839-.12v-.12l.72-.24v-.12h.24v-.12l.72-.24.12-.24h.24l.12-.24.36-.12.24-.36h.24l.96-1.08 1.079-.959v-.24l.6-.48.12-.36.24-.12v-.24l.36-.24v-.24l.24-.12.12-.36h.12v-.24l.24-.12v-.24l.24-.12.12-.36h.12l.12-.48.24-.119.12-.48.24-.12v-.24h.12v-.24h.12v-.24h.12v-.24l.24-.12v-.24h.12v-.24h.12v-.24h.119v-.24h.12v-.24h.12v-.24h.12l.12-.48h.12v-.24h.12v-.24h.12v-.24h.12v-.24h.12l.12-.479h.12v-.24h.12v-.36h.12v-.24h.12l.12-.48h.12v-.36h.12l.12-.48h.12v-.36h.12l.12-.48h.12v-.36h.12v-.24h.12l.12-.6h.12v-.36h.12v-.239h.12l.12-.72h.12v-.24h.12v-.36h.12v-.24h.12l.24-1.08h.12v-.24h.12v-.36h.12v-.36h.12v-.36h.12v-.36c.208-.522.511-1.157.719-1.679l.24-1.08h.12l.12-.84h.12v-.36h.12v-.36h.12v-.36h.12v-.36h.12v-.36h.12v-.359h.12l.36-1.56h.12l.36-1.56h.12v-.48h.12v-.36h.12v-.48h.12v-.359h.12v-.355h.12l.12-.84h.12l.12-.84h.12l.24-1.32h.12l.24-1.319h.12l.359-1.8h.12v-.481h.12v-.48h.12v-.48h.12v-.48c.7-2.054 1.006-4.5 1.68-6.6l.36-2.28c.665-2.058.8-4.61 1.44-6.719v-.721h.12v-.6h.12v-.72h.12v-.72h.12v-.72h.12v-.72h.12v-.84c.27-.916.333-2.2.6-3.119v-.96h.12v-.841h.12v-.839h.12v-.961a12.153 12.153 0 00.36-2.88h-26.88zM88.868 539.492v-22.556h-19.2v-10.8h30.238v39.952l-.36.119-.12.24-.72.24v.12l-.48.12v.12h-.24v.12h-.24v.12h-.24v.12h-.24v.12h-.24v.12l-1.08.36v.12h-.24v.12l-.72.24v.12h-.36v.12h-.24v.12l-.48.12v.12h-.36v.12h-.24v.12h-.36v.12l-.48.12v.12h-.36v.12h-.24v.12l-.72.12v.12h-.24v.12l-.72.12v.12h-.24v.12l-1.08.24v.119h-.24v.12l-5.759 1.68h-.6c-.772.241-1.842.364-2.639.6h-.838v.12h-.96v.12h-1.08v.12h-1.8a14.9 14.9 0 01-4.919 0h-2.04v-.12h-1.44v-.12h-1.08v-.12h-.96v-.12h-.84v-.12l-2.759-.36v-.12h-.6c-.625-.2-1.439-.394-2.04-.6h-.48v-.12l-.84-.12v-.12h-.36v-.12h-.36v-.12h-.48v-.12H55.4v-.12h-.36v-.12h-.36v-.12h-.36v-.116h-.24v-.12l-.72-.12v-.12h-.24v-.12h-.36v-.12l-.6-.12v-.12h-.24v-.12h-.36v-.12l-.48-.12v-.12h-.36v-.12h-.24v-.12l-.48-.12v-.12l-.48-.12v-.12h-.24v-.12h-.24v-.12h-.24v-.12h-.24v-.12h-.24v-.12h-.24v-.12h-.24v-.12h-.24v-.12h-.24v-.12h-.24l-.12-.24-.72-.24-.12-.24h-.24v-.12h-.24l-.12-.24-.48-.12-.12-.24h-.24v-.12l-.36-.119-.12-.24H44l-.12-.24h-.24l-.24-.36h-.24l-.24-.36h-.24l-.36-.48h-.24l-.36-.48h-.24l-.96-1.08h-.24l-.12-.24-.84-.72v-.24l-1.2-1.079v-.24l-.84-.72v-.24l-.48-.36v-.24l-.48-.36v-.24l-.48-.36v-.24l-.36-.24v-.24l-.24-.12v-.24l-.36-.24v-.239l-.24-.12v-.24l-.24-.12v-.24l-.24-.12v-.24l-.24-.12-.12-.48-.24-.12-.12-.48-.24-.12-.12-.48-.24-.12v-.24h-.12v-.24h-.12v-.24h-.12v-.24h-.12v-.24h-.12v-.24h-.12v-.24H32v-.239h-.12v-.24h-.12l-.24-.72h-.12v-.36h-.12v-.24h-.12l-.12-.6h-.12v-.36h-.12v-.24h-.12l-.24-1.08h-.12v-.36h-.12v-.36h-.12v-.359h-.12l-.12-.96h-.12l-.12-.96h-.12l-.12-.96h-.12l-.12-1.08H29v-.6h-.12v-.719h-.12v-.72h-.12v-.716h-.12v-.84h-.12v-.84h-.12v-1.08h-.12l-.24-3.959V511.3a21.328 21.328 0 01-.12-4.8 11.306 11.306 0 01.12-2.52v-3.96h.12v-2.16h.12v-1.56h.12v-1.08c.208-.716.272-1.71.48-2.4l.12-1.319H29l.12-1.08h.12v-.48h.12v-.48h.12v-.48h.12v-.36h.12v-.36h.12l.24-1.2h.12v-.24h.12l.12-.72h.12v-.24h.12v-.361h.12v-.24h.12v-.36h.12l.12-.48h.12v-.24h.12v-.36h.12l.24-.72h.12v-.24H32l.12-.479.24-.12v-.24h.12v-.24h.12v-.24h.12v-.241l.24-.12.12-.48.24-.12.12-.48h.12l.12-.36.24-.12v-.24l.24-.12v-.24l.36-.24v-.24l.24-.12v-.24l.36-.24v-.24l.48-.359v-.24l.48-.36v-.24l.36-.24v-.12l.24-.12v-.24l1.08-.96a17.46 17.46 0 013.839-3.719l.48-.6h.24l.36-.48h.24l.24-.36h.241l.24-.36h.24l.12-.24h.24l.24-.36h.24l.12-.24.36-.12v-.12l.48-.12v-.12l.36-.12.12-.239h.24v-.12h.24l.12-.24H47v-.12h.24v-.12h.24v-.12h.24v-.12h.24l.12-.24.48-.12v-.12l.48-.12v-.12h.36v-.12h.24v-.12l.72-.24v-.12h.36v-.12h.24v-.12h.36v-.12h.24v-.12l.72-.12v-.12h.24v-.12l5.4-1.56h.6c.747-.232 1.752-.373 2.52-.6h.84v-.12h.84v-.12h.96v-.12H65v-.12h1.68a21.8 21.8 0 015.879 0h1.56v.12h1.08v.12l1.68.12 5.039 1.079v.12l1.2.24v.12h.36v.12h.36v.12h.36v.12l.72.12v.12h.24v.12h.36v.12h.24v.12h.36v.12h.24v.12h.36v.12l.72.24v.12h.24v.12h.24v.12h.24v.12h.24v.12h.24v.12h.24v.12h.24v.12h.24v.12h.24l.12.24.48.12v.12l.36.12.12.24.48.12.12.239h.24l.24.36h.24l.12.24h.24l.24.36h.24l.12.24.36.12.48.6h.24l.6.72h.24l1.92 2.04.96.839v.24c.246.344.395.062.48.72l-.84.6-.12.24h-.24l-.48.6h-.24l-.48.6h-.24l-.48.6h-.24l-.6.719h-.24l-.48.6h-.24l-.48.6h-.24l-.48.6h-.24l-.48.6h-.24v.12a1.639 1.639 0 01-.96.6l-.6-.84-.36-.24v-.24l-.36-.24-.72-.84h-.24l-.48-.6h-.24l-.24-.359h-.24l-.24-.36h-.24l-.12-.24-.48-.12-.12-.24-.48-.12-.12-.24h-.24v-.12h-.24v-.12h-.24v-.12h-.24l-.12-.24-.6-.12v-.12h-.248v-.12l-.72-.24v-.12h-.36v-.12h-.24v-.12l-.72-.12v-.12h-.24v-.12l-.84-.12v-.12h-.36v-.12h-.36v-.12l-.96-.12v-.12l-.96-.12v-.12h-.6v-.12h-.72v-.12h-.84v-.12h-.96v-.12h-1.08v-.119h-1.8v-.12a11.853 11.853 0 00-3.119.12h-1.32l-1.68.119v.12h-.96v.12h-.72v.12h-.72v.12h-.6v.12h-.48v.12l-1.08.12-3.959 1.32v.12l-.48.12v.12h-.36v.12l-.72.24v.12H54.8v.12l-.48.12-.12.24-.72.24-.12.24-.48.12v.12l-.36.12-.12.24h-.24v.12l-.36.12-.12.239h-.24l-.24.36h-.24l-.36.48h-.24l-.36.48h-.24l-.72.84h-.24l-1.08 1.2-.6.48v.24l-1.08.959v.24l-.6.48v.24l-.48.36v.24l-.36.24-.12.36-.24.12v.24l-.24.12-.12.36h-.12v.24l-.24.12-.12.48-.24.12-.24.719-.24.12-.12.48h-.12l-.24.72h-.12v.36h-.12l-.12.48h-.12v.36h-.12v.24h-.12v.36h-.12v.36h-.12v.36h-.12v.36H41v.48h-.12v.479h-.12v.48h-.12l-.12 1.32h-.12v.72h-.12v.84h-.12v.84h-.12v.959h-.12v1.08h-.12v1.2h-.12v1.68h-.12v2.639h-.12v.6c-.083 6.677.058 13.34 1.8 18.236v.48h.12v.36h.12v.36h.12v.36h.12v.24h.12v.36h.12v.24h.12v.36h.12l.24.719h.12v.24h.12v.24h.12v.24h.12v.24h.12v.24h.12v.24h.12v.24l.24.12.24.72.24.12v.24l.24.12v.24l.24.12v.24l.24.12v.24l.24.12v.24l.24.12v.24l.36.239v.24l.48.36v.24l.48.36v.24l.6.48v.24l.72.6 1.44 1.56h.24l.36.479h.24l.36.48h.24l.12.24h.24l.12.24h.24l.12.24h.24l.12.24h.24l.12.24.72.24.12.24 4.679 2.16.72.12v.12h.36v.12h.36v.12h.36v.119h.36v.12h.48a37.8 37.8 0 0011.518 1.8 6.447 6.447 0 002.04.12v-.12h1.68v-.12h1.08v-.12h.72v-.12h.72v-.12h.6v-.12l1.56-.24v-.12l1.32-.24v-.12l.84-.12v-.12h.36v-.12h.36v-.12h.48zm24.595-76.065H152.7a18.1 18.1 0 014.079.12l2.88.24v.12h.6v.12h.6v.12h.48v.12h.479v.12h.48v.12h.48v.12h.36v.12h.36v.12h.36v.12l.72.12v.12h.24v.12h.36v.12h.24v.12h.36v.12l.719.24v.12h.24v.12h.24v.12h.24v.12h.24v.12h.24v.12h.24v.12h.24l.12.24.48.12.12.24.48.12.12.239h.24l.24.36h.24l.12.24h.24l.12.24h.12l.12.24h.239l.48.6h.24l1.08 1.2.72.6v.24l.72.6v.24l.36.24v.239l.36.24v.24l.24.12v.24l.36.24.12.48.239.12.12.48.24.12v.24h.12v.24h.12v.24h.12v.24l.24.12.12.6h.12v.24h.12l.24.719h.12v.36h.12v.24h.12v.36h.12v.24h.12v.36h.12v.36h.12v.36h.12l.84 3.719v.96a20.219 20.219 0 01.24 4.8 25.461 25.461 0 01-1.92 9.958v.36h-.12v.24h-.12v.36h-.12l-.24.72h-.12v.24h-.12v.24h-.12v.24h-.12l-.24.719-.24.12-.12.48-.239.12-.12.48-.24.12v.24l-.36.24v.24l-.24.12v.24l-.36.24v.24l-.6.48v.24l-1.08.959-1.44 1.56h-.24l-.359.48h-.24l-.24.36h-.24l-.24.36h-.24l-.12.24h-.24l-.12.24-.36.12v.12l-.72.24-.12.24h-.24v.12h-.24v.12h-.24v.12h-.24v.12h-.24v.12l-.719.239v.12l-.6.12v.12h-.24v.12l-.72.12v.12h-.24v.12l-1.08.24v.12h-.48v.12h-.36v.12h-.48v.12h-.479v.12h-.48v.12l-1.2.12v.12h-.72v.12h-.84v.12h-1.08v.12h-1.439v.12h-.24v.12h.12l.36.6.24.12v.24l.479.36v.24l.48.36v.24l.48.359v.24l.48.36v.24l.48.36v.24l.48.36v.24l.24.12v.12l.24.12v.24l.48.36c2.682 3.725 5.721 7.069 8.4 10.8l.48.36v.239l.48.36v.24l.48.36v.24l.48.36v.24l.48.36v.24l.24.12v.12l.239.12v.24l.48.36v.24l.24.12v.12l.24.12v.24l.48.36v.24l.48.359v.24l.36.24v.24l.48.36v.24l.48.36v.24l.24.12v.12l.24.12v.24l.48.36v.24l.48.36v.24l.6.48v.24l1.08.959.48.6c1.609 1.155 3.575 1.563 6.359 1.56v8.158c-.679.307-1.438.705-2.16.96l-.96.12v.12l-1.319.12a8.823 8.823 0 01-4.559-.12l-.84-.12v-.12h-.24v-.12h-.36v-.12l-.72-.24v-.12h-.24v-.12l-.48-.12-.12-.24h-.24l-.24-.36h-.24l-.24-.36h-.24l-.6-.719h-.24l-1.32-1.44h-.24l-.48-.6-.24-.12v-.24l-1.56-1.44v-.24l-.719-.6v-.24l-.48-.36v-.24l-.24-.12v-.12l-.24-.12v-.24l-.48-.36v-.24l-.48-.36v-.24l-.48-.36v-.24l-.6-.48v-.24l-.48-.36v-.24l-.48-.359v-.24l-.479-.36v-.24l-.48-.36v-.24l-.48-.36v-.24l-.48-.36v-.24l-.48-.36v-.24l-.48-.36v-.24l-.48-.36v-.24l-.48-.36v-.239l-.6-.48c-2.484-3.442-5.324-6.511-7.8-9.958l-.48-.36v-.237l-.48-.36v-.24l-.48-.36v-.24l-.48-.36v-.24l-.6-.48v-.24l-.479-.36v-.24l-.48-.36v-.239l-.48-.36v-.24l-.48-.36v-.24l-.24-.12v-.12l-.24-.12v-.24l-.48-.36v-.24l-.48-.36v-.24l-.48-.36v-.24l-.48-.36-.84-.959h-.239l-.12-.24h-.243l-.12-.24-.48-.12-.12-.24h-.36v-.122l-.48-.12v-.12l-1.2-.24v-.12a17.9 17.9 0 00-5.039-.36h-8.4v37.792h-11.638v-88.9zm111.1 0h14.517l34.793 88.9h-12.24l-10.318-26.874h-37.552c-.683 1.859-1.38 3.856-2.16 5.639l-.12.719h-.12v.24h-.12l-.12.72H211v.36h-.12v.24h-.12l-.24 1.08h-.12v.24h-.119l-.12.72h-.12v.24h-.12l-.24 1.079h-.12v.24h-.12l-.24 1.08h-.12v.24h-.12l-.12.72h-.12v.24h-.121l-.24 1.08h-.12v.24h-.12l-.24 1.079h-.12v.24h-.12l-.12.72h-.12v.24h-.12l-.24 1.08h-.12v.24h-.12l-.24 1.08h-.12v.24h-.12l-.12.719h-.12v.24h-.12l-.24 1.08h-.12v.24h-.12l-.239 1.08h-.12v.24h-.12l-1.08 3.239h-12.474v-.12h.12l.12-.72h.12v-.24h.12v-.357h.12v-.36h.12v-.24h.12l.12-.72h.12v-.24h.12l.12-.72h.12v-.24h.12l.24-1.08h.12v-.24h.12l.12-.72h.12v-.239h.12l.12-.72c1.436-3.272 2.53-6.926 3.959-10.2l.24-1.08h.12v-.24h.12l.12-.72h.12v-.24h.12l.12-.72h.12v-.24h.12l.12-.719h.12v-.24h.12l.12-.72h.12v-.24h.12l.12-.72h.12v-.24h.12l.12-.72h.12v-.24h.119v-.36h.12l.12-.72h.12v-.24h.12l.12-.719h.12v-.24h.12l.12-.72h.12v-.24h.12l.12-.72h.12v-.233h.12l.12-.72h.12v-.24h.12l.12-.72h.12v-.24h.12l.12-.719h.12v-.361h.12v-.24h.12v-.36h.12v-.36h.12v-.24h.12l.12-.72h.12v-.24h.12l.12-.72h.12v-.24h.12l.12-.72h.12v-.24h.12l.12-.719h.12v-.24h.12l.24-1.08c1.568-3.584 2.751-7.571 4.319-11.158l.12-.72h.12v-.24h.12l.24-1.079h.116v-.24h.12l.12-.72h.12v-.24h.12l.12-.72h.12v-.24h.12l.12-.72h.12v-.24h.12l.12-.72h.12v-.244h.12l.12-.719h.12v-.24h.12l.24-1.08h.12v-.24h.12l.12-.72h.12v-.24h.12l.12-.72h.12v-.241h.12l.12-.72h.12v-.24h.12l.12-.719h.12v-.24h.12l.12-.72h.12v-.24h.12v-.36h.12v-.361h.12v-.24h.12l.12-.72h.12v-.36h.119v-.24h.12v-.36h.12v-.36c1.758-4.012 3.046-8.458 4.8-12.477l.12-.72h.12v-.24h.12l.12-.72h.12v-.24h.12v-.36h.12v-.359h.12v-.24h.12l.12-.72h.12v-.24h.12l.12-.72h.12v-.24h.12l.24-1.08h.12v-.24h.12l.12-.72h.12v-.24H223l.12-.719h.12v-.24h.12l.12-.72h.12v-.24h.12v-.36h.12v-.36a9.44 9.44 0 00.721-1.798zm124.654 0v5.159l-.12 2.88h-.12l-.12 1.08a22.572 22.572 0 01-2.879 5.518l-.48.36v.24l-.48.36v.24l-.6.48v.24l-.48.36v.24l-.48.36v.24l-.48.36v.24l-.6.48v.236l-.48.36v.24l-.48.36v.24l-.48.36v.24l-.6.48v.24l-.48.36v.24l-.48.36v.24l-.6.48v.24l-.48.359v.24l-.48.36v.24l-.479.36v.24l-.6.48v.24l-.48.36v.24l-.48.36v.24l-.48.36v.24l-.6.48v.24l-.48.359v.24l-.48.36v.24l-.48.36v.24l-.6.48v.24l-.48.36v.24l-.48.36v.24l-.48.36v.24l-.6.48v.24l-.48.359v.24l-.48.36v.24l-.48.36v.24l-.6.48v.24l-.48.36v.24l-.479.36v.24l-.6.48v.24l-.48.36v.239l-.48.36v.24l-.48.36v.24l-.6.48v.24l-.48.36v.24l-.48.36v.24l-.48.36v.24l-.6.48v.24l-.48.36v.244l-.48.36v.24l-.48.36v.24l-.6.48v.24l-.24.12v.12l-.24.12v.24l-.48.36v.24l-.48.36v.24l-.6.48v.24l-.48.359v.24l-.479.36v.24l-.48.36v.24l-.6.48v.24l-.24.12v.12l-.24.12v.24l-.24.12v.12l-.24.12v.24l-.6.48v.24l-.48.36v.24l-.48.359v.24l-.48.36v.24l-.6.48v.24l-.48.36v.24l-.24.12v.12l-.24.12v.24l-.48.36v.24l-.6.48v.24l-.48.36v.239l-.48.36v.24l-.24.12v.12l-.24.12v.24l-.6.48v.24l-.48.36v.24l-.479.36v.24l-.48.36v.24l-.6.48v.24l-.48.36v.239l-.24.12v.12l-.24.12v.24l-.48.36v.24l-.6.48v.24l-.48.36v.24l-.48.36v.24l-.6.48v.24l-.239.12v.12l-.24.12v.24l-.48.359v.24l-.48.36v.24l-.6.48v.24l-.48.36v.24l-.48.36v.24l-.48.36v.24l-.6.48v.24l-.959.839v.12l-.24.12v.24l-1.32 1.2v.24l-.84.72-.36.48-.24.12v.24l-.48.36-1.32 1.559h56.989v10.558h-70.544c-.049-3.091-.315-7.257.48-9.6v-.48l1.32-3 .24-.12v-.24h.12l.12-.36.24-.12v-.24l.36-.24v-.24l.72-.6v-.24l.479-.36v-.239l.48-.36v-.24l.48-.36v-.24l.48-.36v-.24l.48-.36v-.24l.48-.36v-.24l.36-.24v-.24l.48-.36v-.24l.48-.36v-.24l.48-.359v-.24l.479-.36v-.24l.24-.12v-.12l.24-.12v-.24l.48-.36v-.24l.24-.12v-.12l.24-.12v-.24l.48-.36v-.24l.48-.36v-.24l.48-.36v-.24l.48-.359v-.24l.48-.36v-.24l.48-.36v-.24l.479-.36v-.24l.48-.36v-.24l.48-.36v-.24l.48-.36v-.24l.48-.36v-.24l.48-.36v-.239l.48-.36v-.24l.48-.36v-.24l.48-.36v-.24l.48-.36v-.24l.48-.36v-.24l.479-.36v-.24l.48-.36v-.24l.48-.36v-.239l.48-.36v-.24l.36-.24v-.236l.48-.36v-.24l.48-.36v-.24l.48-.36v-.24l.48-.36v-.24l.24-.12v-.12l.24-.12v-.24l.479-.36v-.24l.24-.119v-.12l.24-.12v-.241l.48-.36v-.24l.24-.12v-.12l.24-.12v-.24l.48-.36v-.24l.24-.12v-.12l.24-.12v-.24l.48-.36v-.24l.48-.36v-.24l.48-.36v-.24l.48-.359v-.241l.479-.36v-.24l.48-.36v-.24l.48-.36v-.24l.48-.36v-.24l.48-.36v-.24l.24-.12v-.12l.24-.12v-.24l.48-.36v-.24l.24-.12v-.12l.24-.119v-.241l.48-.36v-.24l.48-.36v-.24l.48-.36v-.24l.479-.36v-.24l.48-.36v-.24l.36-.24v-.24l.24-.12v-.12l.24-.12v-.24l.48-.36v-.239l.48-.36v-.24l.48-.36v-.24l.48-.36v-.24l.48-.36v-.24l.48-.36v-.24l.479-.36v-.24l.24-.12v-.12l.24-.12v-.24l.48-.36v-.24l.48-.359v-.24l.48-.36v-.24l.48-.36v-.24l.24-.12v-.12l.24-.12v-.24l.48-.36v-.24l.24-.12v-.12l.24-.12v-.24l.48-.36v-.24l.479-.36v-.24l.48-.359v-.24l.48-.36v-.24l.48-.36v-.24l.48-.36v-.24l.36-.24.12-.36.72-.6v-.24l.96-.84v-.243l.959-.839v-.24l1.08-.96v-.24l.96-.84v-.24l.96-.84v-.24l.96-.839v-.24l.959-.84v-.24l.96-.84v-.24l.84-.72v-.12h-51.829v-.12q1.618-5.159 3.239-10.318a2.361 2.361 0 011.2-.12h61.667zm12.358 0h63.945a5.267 5.267 0 01-.6 1.92l-.12.72h-.12v.48h-.12v.36h-.12v.36h-.12v.36h-.12v.359h-.12v.36h-.12v.48h-.12v.36h-.12v.36h-.12v.36h-.12v.36h-.12l-.12.72h-.12l-.12.84a13.137 13.137 0 00-.72 2.159h-49.07V499.9h43.911v10.678H373.21v31.193h51.95v10.558h-63.587v-88.9zm-144.451 52.55H247.6v-.12h-.12l-.12-.6h-.12v-.357h-.12v-.24H247v-.36h-.12v-.36h-.12v-.24h-.12v-.36h-.12v-.24h-.12l-.12-.6h-.12l-.12-.719h-.12v-.24h-.12v-.36h-.12v-.24h-.12v-.36h-.12v-.24h-.12l-.12-.72h-.12l-.12-.6h-.12v-.24h-.12v-.36h-.12v-.24h-.12l-.12-.72h-.12v-.24h-.12v-.359H244v-.24h-.12l-.12-.6h-.12l-.12-.72h-.12v-.24h-.12v-.362h-.12v-.24h-.12l-.12-.72h-.12v-.24h-.12v-.36h-.12v-.24h-.12v-.36h-.12v-.24h-.12l-.12-.719h-.12l-.12-.6h-.12v-.24h-.12v-.36h-.12v-.24h-.12l-.12-.72h-.12l-.12-.6h-.12v-.24h-.12v-.36h-.12v-.24h-.12l-.12-.72h-.12v-.239h-.12v-.36h-.12v-.24h-.12l-.12-.6h-.119l-.12-.72h-.12v-.24h-.12v-.362h-.121v-.24h-.12l-.12-.72h-.12v-.24h-.12v-.36h-.12v-.24h-.12l-.12-.6h-.12l-.12-.72H238v-.24h-.12v-.36h-.12v-.24h-.12v-.36h-.12v-.24h-.12l-.12-.72h-.12v-.24h-.12v-.36h-.12v-.24h-.12l-.12-.6h-.12l-.12-.719h-.12v-.24h-.12v-.36h-.12v-.24h-.12v-.36h-.12v-.24h-.12v-.36h-.12v-.361h-.12v-.36h-.12v-.36h-.12v-.48h-.12v-.36H235v-.48h-.12v-.479c-.833-2.317-1.327-5-2.159-7.319v-.48h-.121v-.36h-.12v-.48h-.12v-.48h-.12l-.24-1.2h-.12l-.24 1.319h-.12v.48c-.189.543-.415 1.265-.6 1.8l-.12.96c-.654 1.8-1.03 3.957-1.679 5.759v.479H229v.48h-.12v.48h-.12l-.12.84h-.12v.36h-.12v.36c-1.5 3.422-2.584 7.256-4.079 10.678l-.12.72h-.12v.359h-.12v.24h-.12v.36h-.12v.36h-.121v.24h-.12l-.24 1.08h-.12v.24H223l-.12.72h-.12v.24h-.12l-.24 1.08h-.12v.24h-.12l-.24 1.079h-.12v.24h-.12l-.12.72h-.12v.24h-.12l-.24 1.08h-.12v.24h-.12l-.12.72h-.12v.24h-.12l-.12.719h-.12v.36h-.119v.24H220v.36h-.12v.36h-.12v.24h-.12v.36h-.12l-.12.72h-.12v.24h-.12l-.12.72h-.12v.24h-.12l-.24 1.079h-.12v.24h-.12l-.24 1.08a13.052 13.052 0 00-.958 2.524zM125.1 473.985v29.994h29.514v-.12h1.08v-.12h.839v-.12l1.2-.12v-.12l.96-.12v-.12h.36v-.12h.36v-.119h.36v-.12h.36v-.12h.24v-.12h.36v-.12l.48-.12v-.12l.479-.12.12-.239.48-.12.12-.24h.24l.12-.24h.24l.24-.36h.24l.96-1.08.6-.48v-.24l.36-.24v-.24l.24-.12.12-.36h.12l.24-.72.239-.12v-.239h.12v-.36h.12l.12-.48h.12l.24-1.08a17.927 17.927 0 00.96-6.479V486.1h-.12v-.96h-.12v-.84h-.12v-.6h-.12v-.48h-.12v-.48h-.12v-.359h-.12v-.36h-.12l-.12-.72h-.12l-.24-.72h-.12v-.24h-.12l-.239-.72-.24-.12v-.24l-.24-.12v-.241l-.36-.24v-.24l-.96-.84-.48-.6h-.24l-.24-.36h-.24l-.12-.24-.36-.12v-.12l-.48-.12-.12-.24-1.079-.36v-.12l-.48-.12v-.12l-1.56-.36c-2.665-.895-6.5-.72-10.078-.72H125.1z" fill-rule="evenodd"/></svg>