<svg xmlns="http://www.w3.org/2000/svg" width="85" height="85"><defs><linearGradient id="a" x1="18" y1="42.516" x2="67.063" y2="42.516" gradientUnits="userSpaceOnUse"><stop offset="0" stop-color="#cdcdcd"/><stop offset=".569" stop-color="#7c7c7c"/><stop offset="1" stop-color="#7c7c7c"/></linearGradient></defs><path data-name="Градиентная заливка 2" d="M46.158 16.982v.051h-.034a1.354 1.354 0 01-.238.238l-.136.153-.357.34-1.055 1.073-.544.528-.51.528-.068.051a.825.825 0 01-.238.221v-.016l-.085-.017v-.017h-.053l-.017-.034h-.051v-.017h-.051v-.017l-.068-.017v-.017H42.6V20h-.049v-.021H42.5v-.017h-.051v-.017l-.1-.017v-.017l-.1-.017v-.017h-.038v-.017h-.051v-.017l-.153-.034v-.017l-.136-.017v-.017h-.051v-.018h-.051v-.017l-.119-.017v-.017l-.119-.017v-.017l-.119-.017v-.017h-.086V19.6h-.068v-.013h-.068v-.017h-.085v-.017h-.051v-.017h-.085v-.017h-.085V19.5H40.8v-.015h-.069v-.017h-.068v-.017l-.221-.017c-.13-.038-.312-.047-.442-.085l-1-.085v-.017h-.464a2.944 2.944 0 00-.663-.017 1.528 1.528 0 00-.34.017h-.375l-.953.051v.017H36.1v.017h-.184v.017h-.153v.017h-.153c-.123.037-.3.048-.425.085h-.137c-.155.046-.342.073-.493.119h-.1c-.1.03-.226.055-.323.085l-.17.017v.017h-.071v.017h-.051v.017l-.187.034v.017h-.068v.017l-.323.068c-.282.1-.609.179-.885.289l-.17.034v.018h-.034v.017l-.153.034v.017l-.068.017v.015H31.9v.017h-.033v.017h-.051v.017h-.034v.019h-.051v.017H31.7v.013h-.054v.017l-.068.017v.017h-.052v.017l-.068.017v.017h-.068v.017l-.085.017v.017h-.034v.017h-.051l-.97.477-.017.034H30.2v.019h-.035v.02h-.034v.017H30.1l-.017.034-.1.034-.017.034-.068.017-.017.034-.1.034-.017.034-.068.017-.017.034-.068.017-.017.034-.068.017-.034.051h-.041l-.017.034H29.4l-.034.051h-.034l-.017.034h-.034l-.017.034h-.034l-.034.051h-.034v.017l-.051.017-.017.034h-.035l-.034.051h-.034l-.017.034h-.034l-.034.051h-.034v.017l-.051.017-.021.03h-.03l-.017.034-.051.017-.051.068h-.034l-.051.068h-.034l-.051.068h-.034l-.051.068h-.034l-.051.068h-.034l-.068.085h-.034l-.068.085h-.034l-.073.091h-.029l-.068.085h-.035l-.068.085h-.034l-.068.085h-.034l-.119.136h-.034l-.136.153h-.034l-.238.255h-.034l-.34.358h-.034l-.051.068-.137.123v.034h-.017l-.034.051-.357.341v.034l-.221.2v.034l-.034.017v.017l-.085.068v.034l-.085.068v.034l-.1.085v.034l-.1.085v.034l-.034.017-.017.051-.068.051v.034l-.051.034v.034l-.051.034v.034l-.068.051v.034l-.051.034v.034l-.034.017v.034l-.051.034v.034l-.034.017-.017.051h-.022v.034l-.034.017v.034l-.034.017v.034l-.034.017v.034l-.034.017v.037l-.034.017v.034l-.034.017-.017.068h-.017l-.017.051-.034.017-.017.068h-.017l-.017.051-.036.017-.017.068-.034.017-.017.068-.034.017-.017.068-.034.017-.017.068h-.015v.034H24.4v.034l-.034.017v.034h-.019v.034h-.017v.034h-.017v.034H24.3v.034l-.034.017-.034.1h-.021v.034l-.034.017-.017.074h-.017v.034h-.018v.034h-.017v.032h-.017v.034h-.017v.034h-.017v.032h-.017v.034h-.017v.036l-.034.017-.034.1h-.017v.034h-.017l-.034.1h-.017v.051h-.017v.038h-.017v.034h-.017l-.034.1h-.017V28h-.017l-.017.068h-.017v.032H23.7v.034h-.017l-.034.1h-.017v.051h-.017v.034H23.6l-.034.1h-.019v.051h-.017l-.017.068H23.5v.051h-.021v.034h-.017l-.017.068h-.017v.051h-.017l-.017.068h-.017l-.051.17h-.017v.034h-.017v.056h-.017v.03h-.017l-.017.1h-.017v.034h-.017v.051h-.017v.034h-.017v.051h-.017v.034h-.017l-.017.085H23.1v.051h-.012l-.017.1h-.017v.034h-.017l-.037.162h-.014v.034h-.017l-.034.153h-.017v.051H22.9v.051h-.017v.051h-.017v.051h-.017v.051h-.017v.052h-.017v.07H22.8v.051h-.019v.049h-.017v.068h-.017v.052h-.017v.051h-.017l-.013.119h-.021l-.017.119h-.017l-.017.136h-.017l-.034.2h-.017l-.034.221h-.017v.085c-.055.175-.066.4-.119.579l-.017.238h-.017v.136h-.017v.119h-.017v.136h-.017v.187h-.017v.17h-.017v.255h-.017v.449h-.017v.936h.017v.017h-.017a1.055 1.055 0 01.017.153l.017.409.034.426h.017v.17h.017v.119h.017v.136h.017v.136c.038.129.047.3.085.426v.1c.032.105.052.253.085.357v.085h.017l.017.153h.017l.017.157h.017l.017.136h.017v.064h.017v.068h.021v.072h.017v.068h.013v.052h.017v.068h.017v.072h.017v.051h.019v.068h.017l.034.17h.017v.051h.017l.034.17h.017v.051h.017v.051h.017l.03.15h.02V39h.017l.034.153h.017v.034h.012l.034.153h.017v.03h.017l.017.1h.017l.017.085h.017v.034h.017v.051h.017v.034h.017l.017.1h.017l.017.068h.022v.058h.017l.017.068h.017v.051h.017v.034h.017v.047h.017l.017.068h.021v.032h.017v.051h.013v.039h.017l.034.1h.019v.051h.017v.034h.017v.034h.017l.034.1h.015v.051h.017l.034.1h.017v.04h.017v.034h.015v.034h.017v.032h.017v.034h.017v.034l.034.017v.051h.015v.034h.017v.034h.017v.034h.017v.034h.017v.034h.017v.034h.017l.017.068.034.017v.034h.017v.041h.017v.034h.017v.034h.017l.017.068.034.017v.034h.017v.034h.017v.034h.017v.034h.017l.017.068.043.014.034.1.034.017v.034h.017v.034h.015v.034h.017v.034l.034.017.034.1h.015l.017.059.034.017.034.1h.015l.017.051.034.017v.034h.019v.034l.03.016.017.068.034.017v.034l.034.017v.034l.034.017v.034l.034.017v.034l.034.017v.034l.034.017v.034l.034.017v.034h.017l.017.051.034.017V43l.051.034v.034l.034.017.017.051h.017v.034l.034.017v.034l.034.017v.034h.017l.017.051.034.017v.034l.034.017.017.051.071.049v.034l.051.034v.034l.068.051v.034l.068.051v.034l.068.051v.034l.085.068v.034l.07.05v.034l.1.085v.034l.136.119v.034l.17.153a3.167 3.167 0 00.357.375l.289.306h.038l.1.121h.034l.255.272h.034l.068.085h.034l.069.082h.034l.034.051h.038l.068.085h.032l.068.085h.032l.085.1h.035l.068.085h.034l.034.051h.034l.017.043h.034l.017.034h.017l.017.034h.034l.051.068h.034l.034.051h.034l.034.051h.034l.034.051h.034l.034.051h.034l.034.051h.034l.049.066.051.017.017.034h.032v.017l.051.017.017.034h.034l.034.051h.034l.017.034.051.017v.022h.034l.017.034h.034l.017.034h.034L29.2 47h.03l.017.034h.034l.019.032h.034l.015.034.068.017.034.051.068.017.034.051h.034l.013.034h.034v.017h.034l.017.034.068.017.017.034h.034l.017.034h.034l.017.034h.038v.017h.034l.017.034H30v.017h.034v.017h.034v.017h.032l.017.034.068.017.015.035.068.017.017.034.067.021v.017h.034v.013h.034v.017h.034v.017h.034v.017h.034v.019l.1.034.017.034h.034v.017h.037v.015h.034v.017h.034v.017h.034v.017h.034v.017h.034v.017h.034V48l.1.034v.017l.086.019v.017l.069.013v.017h.051v.017h.034v.017h.051v.017l.068.017v.017h.051v.017l.068.017v.017h.051v.017h.034v.017l.1.017v.017l.1.017v.022h.034v.017h.051v.017h.038v.017h.051v.017H32v.017h.051v.017h.049v.017h.051v.021h.039v.017l.1.017v.017l.223.049v.017h.034v.017h.068v.017h.068v.017h.051v.017h.066v.015h.051v.017h.049v.017h.051v.017h.068v.017l.119.017v.015h.051v.017h.051v.017h.06v.017h.051v.017l.323.068v.017h.051v.017h.051v.02l.187.034v.017l.137.017v.017h.051v.017h.049v.017h.051v.017h.068v.017h.068v.017h.1c.173.053.407.068.578.119l.391.034a3.356 3.356 0 00.63.034c.145.008.413 0 .613 0h3.028v8.393a.728.728 0 00-.136.136l-.289.289-.17.153-.766.783-.731.715-1.225 1.243-.527.511-.085.1a1.766 1.766 0 00-.272.272h-.018v-.013a1.956 1.956 0 01-.017-.494V59.92h.017l-.017-.153h.017l-.017-.051V53.57l-.221-.017v-.018l-.034.017v-.017h-.12v-.017h-.136V53.5h-.119v-.016h-.119v-.017h-.153v-.017h-.1v-.017h-.138v-.017h-.1V53.4h-.121v-.018h-.069v-.017h-.085v-.017h-.1c-.2-.062-.435-.089-.63-.153l-.17-.017v-.017l-.2-.034v-.017l-.17-.034v-.017l-.238-.051v-.017h-.057v-.017h-.051v-.017h-.051v-.017h-.051v-.018l-.323-.068-1.6-.528v-.016H30.3v-.017h-.05v-.017l-.068-.017v-.018h-.051v-.017H30.1v-.017l-.085-.017v-.017l-.1-.017v-.017h-.039v-.017l-.1-.017v-.017l-.085-.017v-.017h-.036v-.017H29.6v-.017l-.1-.034v-.017h-.032v-.017h-.051v-.017l-.1-.034v-.017h-.036v-.017l-.068-.017v-.017h-.051v-.017l-.1-.034v-.017h-.037v-.017l-.068-.017v-.017h-.051V51.7h-.034v-.02h-.034v-.017H28.8v-.017h-.03v-.017l-.07-.017-.017-.034-.083-.018-.017-.034h-.034v-.017h-.034v-.017h-.034v-.017h-.034v-.017h-.034l-.013-.034-.068-.017-.017-.034h-.038v-.017h-.034v-.017h-.034v-.017h-.034l-.017-.034h-.051l-.017-.034-.1-.034-.017-.034-.073-.017-.017-.034-.068-.017-.015-.034-.068-.017-.017-.034h-.034v-.017h-.034l-.017-.034-.068-.017-.017-.034-.068-.017V50.9l-.051-.017-.017-.034-.068-.017-.017-.034-.068-.017-.017-.034H27.2l-.017-.034h-.029l-.017-.034H27.1l-.017-.034h-.031l-.017-.034H27v-.021l-.051-.017-.017-.034H26.9v-.017l-.052-.022-.017-.034H26.8l-.034-.051h-.037l-.017-.034h-.034l-.034-.051h-.035l-.017-.03h-.034v-.016l-.051-.017-.017-.034h-.034l-.034-.051h-.034l-.034-.051h-.034l-.034-.051h-.034v-.018l-.052-.017-.017-.034h-.033l-.034-.051h-.034l-.017-.034h-.034L26 49.875h-.037l-.034-.051h-.034l-.051-.068h-.034l-.017-.034h-.034l-.051-.068h-.034l-.034-.054h-.034l-.034-.051h-.034l-.017-.034-.051-.034v-.015h-.034l-.068-.085h-.035l-.033-.051h-.035l-.034-.051H25.2l-.051-.068h-.037l-.068-.085h-.034l-.017-.034h-.017l-.017-.034h-.034l-.1-.119h-.036l-.136-.153h-.034l-.1-.119h-.036l-.085-.1h-.034l-.064-.088h-.038l-.017-.034a.443.443 0 00-.153-.119v-.034a.742.742 0 01-.2-.187l-.068-.051-.024-.035h-.032l-.1-.119a.363.363 0 01-.136-.153H23.5l-.017-.034h-.021v-.034h-.017a.136.136 0 00-.085-.068v-.034l-.289-.277v-.03l-.187-.17v-.034l-.136-.119v-.034l-.1-.085v-.035l-.1-.085v-.034l-.085-.068v-.034l-.1-.085v-.034l-.051-.034v-.034l-.034-.017-.017-.051-.068-.051v-.034l-.068-.051v-.035l-.051-.034v-.034l-.051-.034-.023-.051-.034-.017v-.034l-.034-.017v-.034l-.051-.034v-.034l-.068-.051v-.034l-.052-.038v-.03l-.034-.017v-.034l-.034-.019-.017-.051-.051-.034v-.032l-.034-.017-.017-.051h-.018v-.035l-.034-.017v-.034l-.034-.017v-.034l-.034-.017v-.034l-.034-.017v-.034l-.034-.017v-.034l-.034-.017v-.034l-.034-.017v-.034l-.034-.017v-.034l-.034-.017-.017-.068-.033-.017v-.034l-.034-.017-.017-.068-.034-.017-.015-.069h-.02l-.017-.051-.034-.014-.017-.068h-.017l-.017-.051-.034-.017v-.037h-.017v-.034l-.034-.017v-.034h-.017v-.034h-.017v-.034h-.017v-.034l-.034-.017-.017-.068-.034-.017-.017-.068-.034-.017-.034-.1-.034-.017-.034-.1-.034-.017v-.039h-.017v-.034h-.017v-.034h-.017v-.034l-.034-.017v-.034h-.017v-.034h-.017v-.034h-.017v-.034h-.017l-.017-.068-.034-.017-.017-.068h-.018l-.017-.072H20.3v-.031h-.02v-.034h-.017V43.2h-.017v-.033h-.017l-.017-.067-.034-.017v-.035h-.017v-.034h-.017v-.034h-.017v-.034h-.017v-.034h-.017v-.034h-.017v-.034h-.017v-.034h-.017v-.034h-.017l-.034-.1h-.017v-.054h-.017l-.034-.1h-.017v-.036h-.017v-.034h-.017l-.017-.068h-.017v-.051l-.038-.017v-.051h-.013v-.034h-.017l-.017-.068h-.017v-.051h-.017v-.035H19.7l-.034-.1h-.015v-.053h-.017v-.034h-.017v-.051l-.034-.017v-.051h-.017l-.017-.071h-.017v-.048h-.017l-.015-.068h-.019v-.051h-.017V41.5h-.017l-.017-.085h-.017v-.053H19.4l-.017-.068h-.021v-.051h-.017v-.034h-.017v-.051h-.017v-.034h-.017l-.017-.085h-.017l-.017-.1h-.017V40.9h-.017l-.017-.1h-.017v-.033h-.017l-.017-.1h-.018v-.037h-.017v-.051h-.017v-.051h-.017v-.051h-.017v-.051h-.017v-.034h-.017v-.068H19v-.051h-.013v-.051h-.017v-.051h-.017v-.051h-.017v-.034h-.017l-.408-1.43-.051-.306c-.074-.231-.1-.513-.17-.749V37.5h-.017v-.087h-.017v-.12h-.017v-.1h-.017v-.121c-.041-.139-.044-.335-.085-.477v-.153h-.017v-.153h-.02v-.153h-.014v-.188h-.017v-.221h-.017l-.034-.7v-.338a1.5 1.5 0 01-.018-.324l.017-.732.017-.6h.017v-.2h.017v-.256h.017v-.153h.015v-.136h.02v-.17h.017v-.153h.017v-.12h.017v-.136c.038-.128.047-.3.085-.426v-.119c.04-.128.062-.3.1-.426l.017-.17h.017l.017-.153h.017v-.068h.017v-.085h.019v-.068h.017v-.068h.017v-.051h.017v-.068h.017l.017-.136h.017l.017-.136h.021v-.052h.017v-.051h.013v-.085c.124-.357.228-.753.374-1.09l.034-.153h.017v-.034h.017v-.07h.017l.017-.068h.017v-.049h.017v-.051h.017V28h.017v-.053h.017l.017-.1h.017v-.037h.017v-.051h.018v-.034h.017v-.051h.017v-.034h.017v-.051h.017v-.034h.017V27.5h.017l.017-.068h.021v-.047h.017v-.034h.013V27.3h.017v-.034h.017v-.051h.017l.017-.068h.017V27.1h.017l.017-.068h.017v-.056h.017v-.034h.017v-.051h.017l.017-.068h.017v-.034h.017v-.051h.017V26.7h.015v-.03h.017v-.034h.017v-.051h.017l.017-.068h.017v-.035h.015v-.051l.034-.017v-.051h.017v-.034h.017l.017-.068h.017v-.051h.017l.034-.1h.017v-.036h.017v-.034h.017v-.034h.017v-.034h.017v-.034h.017V25.9h.017v-.03h.017l.034-.1h.017l.017-.068h.017l.017-.068h.017V25.6h.017v-.037h.017v-.034h.017v-.034h.021v-.034h.02v-.034h.017v-.034h.017v-.034h.017v-.034h.017v-.034l.034-.017v-.034h.017l.119-.272.034-.017.034-.1.034-.017V24.8h.017v-.037h.017v-.034h.017v-.034l.034-.017v-.034h.015v-.034l.034-.017.034-.1.034-.017v-.037h.017v-.034l.034-.017v-.034h.017v-.034l.034-.017.034-.1h.017l.017-.051.034-.017V24.1h.017v-.035l.034-.017v-.034l.034-.014.017-.068.034-.017v-.037l.034-.017v-.034l.034-.017v-.035l.034-.017.016-.068.051-.034v-.034l.034-.017.017-.051h.018v-.034l.034-.017v-.034l.034-.017v-.034l.034-.017v-.034l.051-.034V23.3h.017l.017-.051.034-.017V23.2l.051-.034v-.038l.034-.017v-.034l.034-.017.017-.051.051-.034v-.034l.051-.034v-.034l.051-.034v-.034l.051-.034v-.034l.068-.051v-.034l.068-.051v-.034l.083-.067v-.035l.085-.068v-.035l.068-.051v-.034l.085-.068v-.034l.136-.119v-.034l.153-.136v-.034l.034-.017v-.017l.051-.034v-.035l.221-.2v-.038l.255-.238v-.034l.068-.051.119-.136h.034v-.018l.055-.034.544-.562h.034l.153-.17h.035l.136-.153h.017l.017-.034h.034l.119-.136h.034l.136-.153h.034l.085-.1h.034l.119-.136h.034l.085-.1h.034l.051-.068h.034l.085-.1h.034l.051-.068h.034l.034-.051h.034l.068-.085h.034l.068-.085h.035l.034-.051h.034l.034-.051h.034l.054-.076h.034l.034-.051h.032l.034-.051h.034l.034-.051h.034l.034-.051h.03l.051-.068h.034l.034-.051h.034l.034-.051h.034l.034-.051h.034l.017-.034h.034l.034-.051h.034l.017-.034h.034l.034-.051h.034l.017-.034.051-.017v-.018h.034l.017-.034h.034l.02-.034h.034l.017-.034.068-.017v-.017l.052-.021.017-.034.068-.017.017-.034h.034V17.9l.051-.017.017-.034h.034l.017-.034.051-.017v-.015l.068-.017.017-.034.051-.017V17.7l.1-.034.017-.034h.034l.017-.034.051-.017v-.02h.034v-.017h.034v-.017h.034v-.017h.034l.017-.034h.034v-.017h.034v-.017h.037v-.017h.034l.017-.034.068-.017v-.017l.068-.017v-.017h.034v-.017h.034v-.017h.034v-.017h.034v-.017l.068-.017.019-.038.153-.051.017-.034h.051V17.1h.034v-.015h.034v-.017h.034v-.017h.034v-.018h.034v-.017h.034V17h.034v-.018h.034v-.017h.034v-.017h.034v-.017h.034v-.017h.034V16.9h.034v-.02h.051v-.017h.034v-.017l.068-.017v-.017h.051V16.8l.068-.017v-.022h.051v-.017h.034v-.017l.1-.034v-.017l.2-.068v-.017l.068-.017v-.017L30 16.54v-.017h.034v-.017l.1-.017v-.017h.034v-.017l.1-.017v-.017h.032V16.4l.153-.034v-.014h.034v-.017h.053v-.017h.051V16.3h.051v-.016h.051v-.017h.051c.386-.169.83-.3 1.242-.443l.153-.017v-.016h.051v-.017l.119-.017v-.017h.034v-.017h.085v-.017h.072v-.017h.068v-.018h.051v-.017l.221-.034v-.02l.17-.017v-.014l.136-.017v-.017h.051v-.017h.051V15.5l.187-.017v-.016h.065v-.017h.068v-.017h.085v-.017h.085V15.4l.2-.017v-.018h.085v-.017h.085v-.017h.136v-.017h.119V15.3h.051v-.02h.119v-.017h.119v-.017h.085v-.017l.323-.017v-.017h.1v-.017h.1v-.017h.187v-.017h.119v-.017h.153v-.017h.255v-.017h.187v-.017h.153v-.017h.289v-.017l.397-.017h.187a1.558 1.558 0 01.34-.017 2.766 2.766 0 01.6.017h.085v-.018h.119v.017a.046.046 0 00.051-.017l.034.017c.011 0 0-.024.034-.017v.017h.425v.017l.408.017h.187v.017h.187v.017h.2v.018h.2v.017h.119v.017h.119v.017l.34.017v.017l.2.017v.017h.136c.109.032.251.053.357.085l.221.017c.17.052.379.083.544.136h.085c.4.131.846.224 1.225.375l.17.034v.017h.067v.017h.051v.017h.051v.017h.051v.017h.034v.017l.1.017v.017l.085.017v.017h.034v.017h.054v.017h.034v.02h.051v.017h.051v.017h.051v.017h.051v.017h.034v.017l.1.017v.017h.034v.017h.051v.014h.053v.017l.068.017v.016h.034v.017h.051v.017l.068.017v.017l.1.017v.015l.069.021v.017h.051v.017l.1.034v.017h.034v.017h.034v.017h.034v.017h.037v.017h.034v.017h.034v.017h.034v.017h.051v.017h.034v.017l.1.034v.017h.051v.017l.072.017v.017l.1.039v.017h.034v.017h.034v.017h.032v.017h.034l.02.032h.051l.017.034.085.017v.017zm7.911 10.368v.034l.238.221v.035l.119.1v.034h.017l.034.051.051.034v.041l.1.085v.034l.1.085v.034l.051.034v.028l.068.051v.034l.039.015v.034l.068.051v.034l.034.017v.034l.051.034v.034l.051.034v.034l.034.017v.034h.017l.017.051.034.017v.034l.051.041v.034l.034.017v.034l.034.015.017.051h.017l.017.068.038.017v.034l.034.017v.034l.034.017v.034h.017v.034l.034.017.034.1.034.017v.034h.013v.034l.034.017v.034h.017v.041h.017v.03h.017v.034l.034.017v.034h.017v.034h.017v.034h.017v.034h.017l.013.068.039.015.017.068h.017l.034.1h.017v.051l.034.017v.051h.017v.034h.017l.017.068h.017v.051l.034.017v.051h.017v.034h.017l.017.068h.017v.051h.017l.017.068h.017l.051.153h.017v.051h.017v.057h.017l.019.085h.017v.034h.017v.051h.017v.034h.017v.068h.017v.038h.015v.051h.017v.049h.017v.051h.017v.049c.11.276.187.6.289.885l.017.153h.017v.052h.017l.017.153h.017v.068h.017v.068h.018v.085h.017l.017.153h.017l.034.272h.017v.1h.017v.119H57v.092h.017l.051.511h.017v.17h.015v.2a3.737 3.737 0 01.034.868 2.565 2.565 0 01-.017.579l-.034.545h-.019v.137h-.017v.119h-.017v.136c-.026.089-.041.215-.068.306v.1h-.017l-.017.153h-.017v.085h-.017v.068h-.017v.068h-.017v.085h-.017v.07h-.017v.051h-.017v.068h-.017v.068h-.017v.068h-.017l-.017.136h-.017v.051h-.017v.058h-.017v.068h-.017l-.17.545.732.017h.135v-.021h.6l.511.017a3.294 3.294 0 01.7-.017h3.9a1.767 1.767 0 00.272.272l.1.119.51.494 1.182 1.206.766.749.6.613.1.085a1.155 1.155 0 00.289.272.211.211 0 01-.051.1h-.019v.034h-.017l-.013.057-.034.017v.034l-.051.034v.034l-.034.017v.034h-.021l-.017.051-.034.017v.034l-.034.017v.034l-.051.034v.033l-.034.017v.034h-.018l-.017.051-.034.017v.034l-.051.034v.034l-.034.017-.017.051H66.3v.034l-.034.017v.034l-.051.034v.034H66.2l-.017.051-.034.017v.034l-.049.036v.034l-.034.017v.034l-.051.034v.034l-.034.017v.034l-.051.034v.034l-.051.034-.017.068-.051.034v.034l-.034.017-.017.051h-.019v.034l-.034.017v.034l-.034.017v.034l-.034.017v.034l-.051.034v.034h-.017l-.017.051-.034.017v.034l-.051.034v.034l-.051.034v.034l-.051.034v.034l-.034.017v.032h-.018l-.017.051-.034.017v.034l-.051.034v.034l-.034.017v.034l-.051.034v.034l-.034.017v.034h-.017l-.017.06-.034.017v.034l-.051.034-.017.068-.051.034v.034l-.034.017v.034l-.051.034v.034h-.017l-.017.051-.034.017v.034l-.051.034v.034l-.034.017v.034l-.051.034-.017.068-.051.034v.034l-.034.017v.034l-.051.034v.034l-.051.034v.034l-.051.034v.034l-.034.017-.017.051h-.017v.034l-.034.017v.034l-.034.017v.034l-.034.017v.034l-.051.034v.034l-.034.017-.017.051h-.018v.034l-.034.017v.034l-.034.017v.031l-.051.034v.034h-.017l-.017.051-.034.017v.034l-.051.034v.034l-.034.017v.035l-.051.034v.034h-.017l-.017.051-.034.017v.034l-.051.034v.034l-.034.017-.017.051h-.017v.034l-.034.017v.034l-.034.017v.034l-.034.017v.034l-.034.017-.017.051-.051.034v.035l-.034.017v.034h-.017l-.017.051-.034.017v.034l-.051.034v.034l-.034.017V48l-.051.034v.036l-.034.017v.034l-.051.034v.034l-.036.018v.034h-.015l-.017.051-.034.017v.034l-.051.034v.034h-.017l-.017.051-.034.017v.034l-.051.034v.034l-.034.017-.017.051H62.7v.034l-.034.017v.034l-.034.017v.034l-.034.017-.017.051-.051.034v.034l-.034.017v.034l-.051.034v.034l-.034.017-.017.051h-.022v.034l-.034.017v.034l-.034.017v.034l-.051.034v.034h-.017l-.017.051-.034.017v.034l-.051.034v.034l-.034.018v.034l-.051.034v.032l-.049.037v.034h-.019l-.017.051-.034.017v.034l-.051.034v.034l-.034.017-.017.051h-.017v.034l-.034.017v.034l-.034.017v.034l-.034.017-.017.051-.051.034v.034l-.034.017-.017.051h-.018v.034l-.034.017v.034l-.034.017v.034l-.034.015v.034l-.051.034v.032l-.034.017v.034l-.051.034v.034l-.034.017v.034l-.034.017-.017.051-.051.034v.034l-.034.017-.017.051h-.017v.034l-.034.017v.034l-.034.017v.034l-.051.034v.034l-.034.017v.034h-.017l-.017.051-.034.017v.034l-.051.034v.034h-.017l-.017.051-.034.017v.034l-.051.034-.017.068-.034.017v.04l-.051.034v.034l-.051.034-.017.068-.051.034v.036l-.034.017v.033l-.034.017-.017.051-.051.034v.034l-.034.014v.034l-.051.034v.034l-.034.017-.017.068-.051.034v.034h-.018l-.017.051-.034.017v.034l-.034.017-.017.051-.051.034v.041l-.034.017-.017.051h-.017v.032h-.017l-.017.051-.034.017v.032l-.051.034v.034l-.034.017v.035l-.051.034v.034l-.034.017v.035H59.7l-.017.051-.034.017v.034l-.051.034v.034h-.016l-.017.051-.034.017v.034l-.034.017-.017.051-.051.034v.034l-.034.017-.017.051h-.017v.034l-.034.017v.033l-.034.017v.034l-.034.017-.017.051-.051.034v.034l-.034.017v.036l-.051.034v.034l-.034.017-.017.051h-.018l-.017.068-.051.034v.034h-.017l-.017.051-.035.017v.034l-.034.017-.017.051-.051.034v.034l-.034.017v.033h-.016l-.017.051-.031.019v.03l-.051.034v.034l-.034.017v.034l-.034.017v.034l-.051.034v.034h-.02l-.017.051-.034.017v.034l-.051.034v.034h-.017l-.017.051-.034.017v.034l-.051.034v.034l-.034.022v.034h-.017l-.017.051-.034.017v.034l-.051.034v.03h-.017l-.017.051-.034.017v.034l-.051.034v.034l-.034.017v.034l-.051.034v.034h-.017l-.017.051-.034.017v.043l-.051.034v.034H57.8l-.017.051-.034.017v.034l-.051.034v.034l-.034.017v.034h-.022l-.017.051-.034.017v.034l-.051.034v.034l-.034.017v.034l-.034.017v.034l-.051.034v.034H57.4l-.017.051-.034.017v.034l-.051.034v.035h-.013l-.017.051-.034.017v.032l-.051.034v.034l-.034.017v.034l-.051.034v.034l-.034.017-.017.051h-.017v.034L57 56.8v.034l-.034.017v.034l-.051.034v.034l-.034.017v.034h-.021l-.017.051-.034.017v.034l-.051.034v.034l-.034.017v.039l-.051.034v.036l-.034.017v.034l-.051.034v.034l-.034.017v.034h-.018l-.017.051-.034.017v.032l-.051.034v.034h-.017l-.017.052-.034.017v.034l-.051.034v.034H56.3l-.017.051-.034.017v.034l-.051.034v.034h-.019l-.017.051-.034.017v.034l-.051.034v.034l-.051.034-.017.068-.051.034v.034l-.034.017v.034l-.051.034v.034h-.017l-.017.051-.034.017v.034l-.051.034-.017.068-.037.018v.034l-.051.034v.034l-.034.017v.034l-.051.034v.034l-.034.017v.034l-.034.017-.014.051-.051.034v.034h-.017l-.014.052-.034.017v.034l-.051.034v.034l-.034.017v.034h-.021l-.017.051-.034.017v.034l-.051.034v.034l-.034.017v.034l-.051.034v.034l-.034.017-.017.051h-.017v.034l-.034.017v.034l-.051.034v.034l-.034.017v.034h-.017l-.017.051-.034.017v.034l-.051.034v.034h-.017l-.017.051-.033.018v.034l-.051.034v.034l-.034.017-.015.051h-.02v.034l-.034.017v.034l-.034.017v.038l-.051.034v.034l-.034.017v.034l-.051.034v.034h-.017l-.017.051-.034.017v.034l-.051.034v.034l-.034.017v.034l-.051.034v.034l-.034.017v.034l-.034.017-.017.051-.051.034v.034l-.036.015v.034l-.034.017v.034l-.051.034v.034l-.034.017v.034h-.016l-.017.051-.034.017v.034l-.051.034v.034l-.034.017-.017.051H53.7v.034l-.034.017v.034l-.034.017v.034l-.034.017v.034l-.051.034v.034l-.051.034v.034h-.022l-.017.051-.034.017v.034l-.034.017-.017.051-.051.034v.034l-.034.017-.017.051h-.017v.034l-.034.017v.034l-.034.017v.034l-.051.034v.034h-.017l-.017.051-.034.017v.034l-.051.034v.034H53l-.017.051-.034.017v.034l-.051.034v.034l-.034.017v.034l-.051.034-.017.068-.051.034v.034l-.034.017v.034h-.02l-.017.051-.034.017v.034l-.051.034v.034l-.034.017v.034l-.051.034v.034l-.034.017v.034h-.017l-.017.051-.034.017v.037l-.034.017v.034l-.051.034v.034H52.3l-.017.051-.034.017v.034l-.051.034v.035h-.017l-.017.051-.034.017v.032l-.034.017-.017.051-.051.034v.034h-.017l-.017.051-.034.017v.036l-.051.034v.034l-.051.034-.017.068-.051.034v.034h-.017l-.017.051-.034.017v.034l-.051.034v.034h-.017l-.017.051-.034.017v.034l-.051.034v.034h-.018l-.017.051-.034.017v.034l-.051.034v.034h-.017l-.015.052-.034.017v.034l-.051.034v.034H51.3l-.017.051-.034.017v.034l-.051.034v.034l-.034.017v.034h-.021l-.017.051-.034.017v.034l-.051.034v.034l-.034.017v.033l-.051.034v.036l-.034.017-.017.051h-.017v.034l-.034.017v.034l-.034.017v.034l-.034.017-.017.051h-.017l-.017.051h1.803v.017l.527-.017h.153v.017l.528-.017h1.8v.017h.289v-.017h.476a1.432 1.432 0 01.323.017l.34-.017h5.887a1.761 1.761 0 00.272.272l.085.1.527.511 1.191 1.209.783.766.7.715h.017a1.33 1.33 0 00.289.272v.034h.034v.034l.153.119v.034h.017l.02.041h.034v.017l.068.051v.051a2.822 2.822 0 00-.493 0h-1.94L64.125 70a3.167 3.167 0 01-.681.017h-6.652V70l-.647.017a1.586 1.586 0 01-.374-.017l-.289.017h-1.736a3.652 3.652 0 00-.442 0H50.8a6.41 6.41 0 00-.663 0A.287.287 0 0050.02 70a.1.1 0 01-.017.017h-.867a.676.676 0 01-.29-.017c-.069-.02-.018-.012-.051-.051h-.017v-.018h-.034l-.085-.119h-.034v-.035a.068.068 0 01-.068-.068c-.047-.012-.038 0-.051-.051a.068.068 0 01-.068-.068H48.4a.1.1 0 00-.051-.068h-.013v-.034a.1.1 0 01-.068-.051v-.017h-.034c-.012-.047 0-.038-.051-.051v-.034a.42.42 0 00-.119-.085v-.034a.1.1 0 01-.064-.052v-.017h-.038v-.034l-.068-.034v-.034l-.051-.017c-.012-.047 0-.038-.051-.051-.012-.047 0-.038-.051-.051a.1.1 0 00-.051-.068h-.018v-.034a.1.1 0 01-.068-.051v-.017h-.034v-.034l-.07-.034v-.034l-.051-.017V68.6a.1.1 0 01-.068-.051v-.014h-.032a.1.1 0 00-.051-.068h-.017v-.035a.1.1 0 01-.068-.051v-.017h-.034c-.012-.047 0-.038-.051-.051-.012-.047 0-.038-.051-.051a.068.068 0 00-.068-.068c-.012-.047 0-.038-.051-.051a.1.1 0 00-.051-.068h-.017v-.034a.1.1 0 01-.068-.051v-.017h-.034v-.034a.068.068 0 01-.068-.068c-.047-.012-.038 0-.051-.051-.047-.012-.038 0-.051-.051-.07-.018-.017-.011-.051-.051h-.018V67.7c-.04-.034-.032.019-.051-.051a.1.1 0 01-.068-.049v-.019h-.03v-.034c-.07-.018-.017-.011-.051-.051h-.021v-.017c-.04-.034-.032.019-.051-.051-.047-.012-.038 0-.051-.051-.07-.018-.017-.011-.051-.051h-.017v-.017c-.04-.034-.032.019-.051-.051-.047-.012-.038 0-.051-.051-.047-.012-.038 0-.051-.051a.1.1 0 01-.068-.051v-.018H45.9a.1.1 0 00-.051-.068h-.014v-.034c-.07-.018-.017-.011-.051-.051h-.017v-.017c-.04-.034-.032.019-.051-.051-.047-.012-.038 0-.051-.051-.047-.012-.038 0-.051-.051-.047-.012-.038 0-.051-.051h-.034l-.017-.051-.119-.085-.017-.051a.149.149 0 01-.1-.1.094.094 0 01-.085-.1.581.581 0 00.085-.136l.034-.017v-.039l.051-.034v-.034l.051-.034V66l.051-.034v-.036l.034-.017.017-.051h.017v-.034l.034-.017v-.035l.034-.017v-.034l.034-.017v-.034l.051-.034v-.034h.016l.017-.051.034-.017V65.5l.049-.03.017-.068.051-.034v-.034l.052-.034v-.034l.034-.017v-.034l.051-.034v-.034l.034-.017v-.03h.017l.017-.051.034-.017v-.039l.051-.034v-.034h.017l.017-.051.034-.017v-.034l.034-.017.017-.051.051-.034v-.034l.034-.017v-.034l.034-.017v-.034h.017l.017-.051.034-.017v-.034l.068-.051V64.4l.034-.017v-.037l.051-.034v-.034l.034-.017.017-.051h.017v-.034l.034-.017v-.034l.034-.017v-.034h.017l.017-.051.034-.017v-.034l.034-.017v-.034l.051-.034v-.034l.034-.017V63.8l.051-.034v-.033l.034-.017.017-.051h.018v-.034l.034-.017v-.034l.034-.017v-.034l.034-.017v-.034l.051-.034v-.034l.034-.017v-.034l.051-.034v-.034h.017l.017-.051.034-.017v-.034l.051-.034v-.034l.034-.017v-.035l.034-.017L47.5 63l.051-.034v-.033l.034-.017v-.034l.034-.017v-.034l.034-.017v-.034h.017l.017-.051.034-.017v-.034l.068-.051v-.034l.034-.017.017-.051h.02v-.034l.034-.017v-.034l.051-.034v-.035h.017l.017-.051.034-.017v-.034l.051-.034V62.2h.017l.019-.05.034-.017V62.1l.051-.034v-.035l.034-.017v-.034h.017l.017-.051.034-.017v-.034l.051-.034v-.034l.034-.017v-.034l.051-.034v-.035l.034-.017v-.034h.017l.017-.051.034-.017v-.034l.051-.034v-.034l.034-.017v-.034h.017l.017-.051.034-.017v-.034l.051-.034v-.034l.034-.017V61.2l.051-.034v-.037h.017l.017-.051.034-.017v-.035l.051-.034v-.034l.034-.017v-.034l.051-.034v-.034l.034-.017v-.034h.017l.017-.051.034-.017v-.034l.051-.034v-.034h.017l.017-.051.034-.017v-.034l.034-.017.017-.051.051-.034v-.035h.017l.017-.051.034-.017v-.034l.051-.034v-.034h.017l.017-.051.034-.017v-.034l.051-.034v-.034l.034-.017v-.034l.051-.034.017-.068.051-.034v-.034l.034-.017v-.034l.051-.034V59.7l.034-.017v-.036l.051-.034v-.034l.034-.017v-.034l.034-.017v-.034l.03-.017v-.034h.02l.017-.051.034-.017v-.034l.034-.017a.381.381 0 01.068-.1l-.017-.051h-.017v-.036l-.034-.02v-.031l-.034-.017-.017-.068-.034-.017L50 58.9h-.014l-.017-.051-.034-.017V58.8l-.035-.021-.017-.068h-.016l-.017-.051-.034-.017v-.034l-.034-.017-.017-.068-.034-.017v-.034l-.031-.017v-.034l-.037-.022v-.029l-.034-.017-.017-.068-.034-.017v-.035h-.017l-.017-.051-.034-.017v-.034l-.034-.017-.017-.068-.034-.017V58l-.034-.017-.017-.068h-.017l-.017-.055-.034-.017-.017-.068-.034-.017v-.034l-.034-.017v-.034l-.034-.017-.017-.068-.034-.017v-.035l-.036-.017-.017-.051h-.016l-.017-.068-.034-.017v-.034l-.034-.017V57.3l-.034-.017v-.036l-.034-.017v-.03H48.9v-.038l-.034-.017-.017-.068-.034-.017v-.034H48.8l-.017-.051-.034-.017v-.035l-.034-.017-.017-.051h-.022l-.017-.068-.034-.017v-.034l-.034-.017v-.034l-.034-.017v-.034h-.017V56.6l-.034-.017v-.034l-.034-.017-.017-.068-.034-.017v-.034l-.034-.013v-.038l-.034-.017v-.035l-.034-.017-.019-.068h-.015l-.017-.051-.034-.017-.017-.068-.051-.034v-.034h-.017v-.034l-.034-.017-.015-.07-.034-.017v-.032l-.034-.017V55.8L48 55.783v-.034l-.034-.017-.017-.068h-.021l-.017-.051-.034-.013-.017-.068-.034-.017v-.039l-.034-.017-.017-.051h-.018l-.017-.068-.034-.017v-.034l-.034-.017v-.034l-.034-.017v-.034l-.038-.017v-.034h-.013V55.1l-.034-.017v-.032l-.034-.017-.019-.068-.034-.017v-.035h-.015l-.017-.051-.034-.017v-.034l-.034-.012-.017-.051h-.017l-.017-.068H47.3l-.017-.051-.034-.017-.019-.073-.051-.034-.017-.068-.034-.017v-.034l-.034-.017-.017-.07-.034-.017v-.033l-.034-.017V54.2l-.034-.017v-.035h-.017v-.034l-.034-.014v-.037l-.034-.017-.017-.068-.034-.017v-.034l-.039-.017v-.034l-.034-.017v-.034l-.034-.017-.012-.068-.034-.017v-.034l-.034-.017v-.034l-.034-.017v-.035l-.034-.017-.018-.069-.034-.017-.017-.068-.034-.015v-.035l-.034-.017v-.034l-.034-.014-.013-.071-.034-.017v-.034h-.021l-.017-.051-.034-.017v-.034l-.034-.017-.017-.051h-.017v-.034h-.017v-.034l-.034-.017-.017-.068-.034-.017V52.8l-.034-.017v-.031l-.034-.017V52.7l-.034-.017v-.033h-.017v-.034l-.034-.016-.017-.068-.034-.017v-.035l-.034-.017v-.034l-.034-.017v-.034l-.034-.017-.018-.068-.034-.017v-.035l-.034-.017v-.034l-.032-.017v-.034h-.018v-.034l-.034-.017v-.034l-.034-.017-.014-.068-.034-.017v-.034l-.037-.018v-.033l-.034-.017-.017-.068-.034-.017v-.034l-.034-.017v-.034l-.034-.017v-.034l-.034-.017-.017-.068h-.018l-.017-.051-.034-.017v-.035h-.017l-.017-.051-.034-.017v-.034l-.051-.034v-.034l-.037-.017v-.034h-.014l-.017-.051-.034-.017v-.034l-.051-.034v-.034l-.034-.017V51h-.017l-.017-.051-.034-.017V50.9l-.051-.034v-.038l-.031-.017v-.034h-.02l-.017-.051-.034-.017v-.034l-.051-.034v-.034l-.034-.017v-.034h-.017l-.017-.056-.034-.017v-.029l-.051-.034v-.034l-.034-.017v-.034h-.017l-.017-.051-.034-.017v-.034l-.051-.033v-.036l-.034-.017v-.034h-.017l-.021-.051-.034-.017v-.034l-.051-.034v-.034l-.034-.017v-.034h-.013l-.017-.051-.034-.017v-.034l-.051-.034v-.034l-.035-.022v-.029h-.017L44 49.62l-.037-.02v-.031l-.051-.034V49.5l-.034-.017v-.034h-.017l-.017-.049-.034-.017v-.036l-.051-.034v-.034l-.034-.017v-.034h-.017l-.017-.051-.034-.017v-.034l-.051-.034v-.034l-.034-.017v-.034h-.017l-.017-.051-.038-.017V48.9l-.051-.034v-.03l-.034-.017v-.034H43.4l-.017-.051-.034-.017v-.034l-.049-.034v-.034l-.034-.015v-.036h-.017l-.017-.051-.032-.013v-.038l-.051-.034v-.034l-.034-.017v-.034H43.1l-.017-.051-.034-.017v-.034l-.051-.034v-.035l-.034-.017v-.034h-.021l-.017-.051-.034-.017v-.034l-.051-.034v-.034l-.034-.017V47.9h-.018l-.017-.051-.034-.017V47.8l-.051-.034v-.036l-.034-.017v-.034h-.017l-.017-.051-.034-.017v-.034l-.051-.034v-.035l-.034-.017v-.034h-.017l-.017-.051-.034-.017v-.034l-.051-.034v-.034l-.034-.017v-8.683c-2.382 0-6.465-.017-8.847-.017 1.286-1.291.819-.814 4.3-4.324h6.6v.017l.312.037v.017h.068v.017h.068v.017h.052v.017l.17.034v.017h.03v.017l.1.017v.017l.068.017v.013h.034v.017h.051v.017l.068.017v.017h.034l.023.032.1.034.022.038.068.017v.017l.051.017.017.034h.034l.03.051h.034l.017.034.049.017.051.068h.034l.136.153h.034l.068.1.119.1v.034l.068.051v.035l.051.034v.034l.039.021.017.051h.017v.034l.034.017v.034l.032.017.017.068.034.017.018.073h.017l.034.1h.017v5.99a.882.882 0 00.289-.051l.17-.017v-.017l.153-.017v-.017h.068v-.017h.068v-.017h.068v-.017h.047v-.02l.136-.017v-.014h.051v-.017h.051v-.017h.051v-.017h.051V41.6l.119-.017v-.016h.041v-.017h.051v-.017h.049v-.017h.051V41.5h.049v-.018h.034v-.017h.051v-.017l.085-.017v-.018h.034V41.4h.051v-.021h.034v-.017h.051v-.017l.068-.017v-.017h.034v-.017h.058v-.017h.034v-.017l.068-.017v-.017h.034v-.017h.034v-.017H49v-.017h.034v-.017h.034v-.017h.032v-.017h.034v-.017h.036v-.017h.03v-.017h.034v-.017h.034v-.017h.034l.021-.039h.034v-.012h.034v-.017h.034v-.017h.034l.017-.034.1-.034.017-.034h.034l.017-.034.068-.017.017-.034h.034l.017-.034h.034l.017-.034.068-.017.017-.034h.034l.034-.051h.036v-.018l.051-.017.017-.034h.034l.034-.051h.034l.034-.051h.034l.034-.051h.034l.034-.051h.034l.017-.034h.017l.017-.034h.035l.051-.068h.034l.034-.051h.017l.017-.034h.034l.1-.119h.033l.238-.255h.034l.051-.068.034-.017v-.035l.153-.136.34-.392v-.034l.034-.017.017-.051h.017v-.034l.034-.017.017-.068.034-.017v-.034l.034-.017v-.034l.034-.017.017-.068h.017v-.035l.034-.017.017-.068.034-.017.034-.1.034-.017v-.053l.034-.017.034-.1h.017v-.036h.017v-.034h.017l.034-.1h.017v-.054h.017v-.034h.017v-.034h.017v-.034h.021v-.051h.017l.034-.1h.017v-.036h.017v-.051h.015l.017-.085h.017v-.034h.017v-.051h.019v-.034h.017l.017-.1h.017v-.037h.017l.017-.1h.017v-.053h.017v-.051h.017l.034-.17h.017l.017-.136h.017v-.051h.017v-.068h.017v-.069h.017l.017-.153h.017v-.1a4.2 4.2 0 00.119-1.175l-.017-.681h-.016v-.155h-.018v-.136h-.017v-.1h-.017v-.087h-.017v-.1h-.017v-.122h-.017v-.085h-.017l-.017-.152h-.017v-.069h-.017v-.068h-.017l-.017-.136h-.017l-.034-.2h-.017l-.034-.17h-.017V32.9h-.017v-.05H52.5v-.068h-.013l-.017-.1h-.017v-.036h-.017l-.036-.154h-.015v-.034h-.017v-.051h-.017v-.034h-.017l-.017-.085H52.3l-.017-.1h-.017l-.017-.068h-.017v-.053h-.017v-.034H52.2l-.017-.068h-.019v-.035h-.017v-.03h-.017v-.038h-.017v-.034H52.1v-.034h-.021v-.034h-.017v-.034h-.017v-.034h-.017v-.034h-.017v-.034h-.017v-.034h-.017v-.034l-.034-.017-.034-.1-.034-.017-.017-.068h-.017l-.017-.054-.034-.017-.017-.068-.034-.015v-.036h-.017l-.022-.051-.029-.013v-.038l-.034-.017v-.034l-.037-.017-.017-.051-.068-.051v-.034l-.034-.017-.017-.051-.064-.051V30.7l-.051-.034-.019-.046-.119-.1v-.037l-.221-.2-.221-.238-.051-.017-.1-.119h-.036l-.068-.085h-.034l-.051-.068-.051-.017-.017-.039h-.035l-.051-.068h-.034l-.034-.051h-.034l-.034-.051h-.034l-.034-.051-.071-.017-.017-.034h-.031l-.017-.034H49.9l-.017-.034h-.033l-.017-.034-.068-.017v-.017h-.034l-.017-.034h-.034v-.017h-.034v-.018h-.034v-.017h-.034v-.017h-.034v-.017l-.068-.017-.017-.034h-.051l-.017-.034-.068-.017v-.017l-.1-.034V29h-.053v-.015l-.1-.034v-.017h-.037v-.017l-.085-.017v-.017h-.034v-.017h-.051v-.017h-.034v-.017h-.051v-.017h-.034V28.8l-.068-.017v-.019l-.851-.238-.289-.034c-.1-.03-.24-.039-.34-.068h-.221v-.018h-.221a2.7 2.7 0 00-.63-.017h-.663v.017l-.289-.017a1.863 1.863 0 01-.459.017v-.017l-.034.017v-.017l-.238.017h-.171v-.017l-.476.017a.975.975 0 00-.306-.017v.017h-.2c-.214-.018-.49-.017-.732-.017H41.6v.017l-1.106-.017v.017h-.018v-.017l-.051.017v-.017h-.256v.017h-.238s0-.018-.034-.017c-.021.012.007.021-.017.017v-.017h-.136s-.007.025-.051.017a.03.03 0 00-.034-.017v.017h-.085s0-.021-.034-.017v.017c-.037.005-.034-.017-.034-.017h-.153a2.559 2.559 0 01-.408.017l-.051-.017a.028.028 0 01-.034.017c-.024 0 .007-.02-.017-.017v.017h-.222v-.017l-.085.017v-.051h.017l3.2-3.184.97-.988h.544a.456.456 0 01.238-.017v.017a1.062 1.062 0 00.323-.017l.372.018c.074 0 .16-.02.255-.017a.3.3 0 01.068.017v-.017h.087v.017l.17-.017v.017a.045.045 0 00.051-.017h.306v.017l.34-.017v.017h.987v.016h.306v-.016h.017v.016a.836.836 0 01.221-.017v.017h.292v.017h.187v.017h.153v.017h.136v.017l.306.017v.015h.085v.02h.085v.017h.136v.017l.17.017v.017h.068v.017h.084v.017h.068v.017h.068v.017l.323.051v.017l.119.017v.017h.052v.017h.051v.017l.289.068v.017h.034v.017h.051v.017h.035v.017l.1.017v.017h.068v.018H50v.02h.051v.017h.051v.017h.051v.017h.051v.017h.051v.017h.051v.015h.051v.017h.051v.017l.092.016v.017h.034v.017L50.6 25v.017h.05v.017h.034v.017l.085.017v.017h.051v.015l.1.034v.017h.034v.017h.036v.017l.068.017v.017h.051v.021l.1.034v.017h.034v.017h.034v.017l.1.034.023.034h.034v.017h.034v.017h.032v.017h.034v.017h.034l.017.034.1.034.015.034.068.017.017.034.068.017.017.034.068.017.017.034h.034l.017.034h.034l.017.034h.043v.016h.03l.017.034.068.017v.019l.051.017.017.034h.034l.017.034h.034l.017.034h.034v.017l.051.017.017.034h.034l.034.051.068.017.034.051.051.017v.017h.034l.017.034h.034l.034.056h.034l.039.046h.03l.034.054H53l.034.051h.034l.051.068h.034l.066.081h.034l.561.511a.933.933 0 00.255.24zm7.384 15.7h.034a1.816 1.816 0 00-.442-.017h-.017v-.019l-.306.017h-6.465a1.629 1.629 0 00-.442.017.3.3 0 00-.136.119l-.085.068-.017.034h-.035l-.136.153h-.034l-.068.085h-.034l-.085.1h-.034l-.085.1h-.034l-.032.056-.051.017-.017.034H52.9l-.017.034h-.039l-.017.034-.051.017-.034.051h-.034l-.034.05h-.034l-.034.051-.051.017-.017.034H52.5l-.017.034-.051.017v.017H52.4l-.017.034h-.032l-.017.034H52.3l-.017.034h-.034l-.017.034-.051.017v.017l-.068.017-.017.034h-.034l-.017.034h-.034l-.017.034h-.034l-.017.034h-.034l-.017.034-.068.017v.017l-.051.017-.017.034a.068.068 0 00-.068 0l-.017.034-.1.034-.017.034h-.037v.017h-.034v.019h-.034v.017l-.068.017-.017.034h-.034v.017h-.03v.017h-.038v.018h-.034v.017h-.034v.013h-.034v.017h-.034v.017h-.034v.017h-.034v.017l-.1.034v.017H50.9v.021h-.029v.017h-.034v.017l-.1.034v.017h-.053v.017h-.034v.017l-.068.017v.017h-.051v.017H50.5v.017h-.054v.017l-.068.017v.017h-.052v.022h-.034v.017l-.085.017v.017l-.1.017v.012h-.036v.02l-.1.017v.017h-.036v.017h-.051v.017h-.051v.017h-.051v.015h-.051c-.206.082-.447.147-.664.221H49v.017h-.069v.017h-.068v.017H48.8c-.159.054-.363.085-.527.136h-.1v.017h-.092v.017h-.1c-.093.028-.228.04-.323.068h-.122v.017l-.647.051v.022h.017l.017.068.034.017v.034l.034.017v.034h.017v.03l.034.017.017.068.035.015v.034l.034.017.017.068.034.017v.034l.034.017.017.068h.017l.017.051.036.019.017.068h.017l.017.051.034.017v.039h.015v.03l.034.017v.034l.034.019.017.068h.015l.017.051.034.017.019.064h.017l.013.053.034.017v.03h.017v.034l.034.017.017.068h.017l.017.051.034.017.017.068.034.017v.034l.034.017.022.077.034.017v.034l.034.017.017.068h.017l.021.047.03.017.017.068.034.017v.034l.034.017.017.064h.017l.017.051.034.021.017.068h.017l.017.051.034.017.015.069h.017l.017.051.034.017.017.068h.015l.017.051.034.017v.034h.017v.034l.034.017.017.068.034.017v.034l.038.015.017.068h.017l.017.051.034.017.017.068.034.017v.034l.034.017.017.068h.022l.017.051.034.017.017.068.051.034v.034l.034.017v.039l.034.017.013.049h.017l.017.068.034.017.017.068.034.017v.034l.034.017v.034l.034.017v.034l.034.017.017.068.034.017v.034l.034.017v.035l.034.017v.034h.017v.034l.034.017v.038l.034.017.017.068.034.015v.034h.017l.017.051.034.015v.034l.034.017.017.049h.017l.017.068.034.017v.034l.037.02v.034l.034.017.017.068.034.017v.034l.034.017v.034l.034.017.017.068.03.017v.038l.034.017v.034l.034.017.017.068.035.014v.034l.034.016v.034l.034.017v.034l.034.015.017.068h.017l.017.051.034.017v.034l.034.017.017.068.034.017v.034l.034.017.017.051h.017l.017.068h.017l.018.058.034.017.017.068.037.015v.034l.034.017v.034l.031.015.017.068.051.032.017.068.034.017v.034l.034.017v.034l.034.017.017.068.031.021v.034l.034.017.017.068.034.017v.034l.034.017v.037l.034.017v.034h.017v.034l.037.015v.034l.034.017.017.068.034.017v.034l.034.017v.033l.034.017v.034l.034.017v.034h.017v.034l.034.017v.034l.034.017.021.069.03.017v.034l.034.017.017.051h.019l.017.068.032.02v.034l.034.017v.034l.034.015.017.068.034.017v.034h.017v.034l.051.034v.034l.034.017.017.068h.013l.017.051.034.017.017.068.034.017v.034l.034.017v.034l.034.017V54l.034.017.017.068.039.015v.034l.034.017v.034l.034.015.017.068.034.017.021.068.03.017v.03l.034.017v.034l.036.021v.034l.034.017v.034h.017v.034l.034.017.015.068.034.017v.034l.034.017v.034l.032.022v.034l.034.017.019.049h.017l.017.068.034.017v.034l.034.017v.034l.034.017.017.068.034.015v.03l.034.017.017.068.051.034v.034h.017v.034h.017l.017.051c.019-.019.007 0 .017-.034a.352.352 0 00.085-.119l.034-.017v-.03l.034-.017v-.034l.051-.034v-.034h.017l.017-.051.034-.017v-.034l.051-.034v-.035l.034-.017V54.9l.033-.02v-.034h.017l.017-.051.034-.017v-.034l.034-.017v-.034l.051-.034v-.034l.034-.017v-.034l.051-.034v-.034l.034-.017v-.034l.051-.034v-.034l.034-.017v-.034l.053-.036.017-.068.051-.034v-.033l.034-.017v-.034l.051-.034v-.034h.017L53.8 54l.034-.017v-.039l.051-.034.017-.068.034-.017.017-.051.047-.034.017-.068.051-.034V53.6l.034-.017v-.031l.051-.034v-.034h.017l.017-.051.034-.017v-.034l.051-.034v-.034l.034-.017v-.034l.051-.034v-.034l.034-.017v-.034l.051-.034.017-.068.034-.017.017-.051.051-.034v-.035l.034-.017v-.034h.017l.017-.051.034-.017v-.034l.051-.034v-.034l.034-.017v-.034l.034-.017v-.034l.051-.034v-.034h.017l.017-.051.034-.017v-.034l.051-.034v-.034h.017l.017-.051.034-.017v-.035l.051-.034v-.034l.034-.017v-.034h.017l.017-.051.034-.017v-.034l.036-.02.017-.051.051-.034v-.031l.034-.017.017-.051h.017v-.034l.034-.017v-.034l.034-.017v-.034l.051-.034v-.034l.034-.017v-.035l.034-.017.017-.051.051-.034v-.034h.017l.017-.051.034-.017v-.034l.051-.034.017-.068.051-.034v-.034l.034-.017V51.1l.034-.017v-.033l.051-.034v-.034l.034-.017v-.034l.051-.034.017-.068.051-.034v-.035h.017l.017-.051.034-.017v-.034l.051-.034v-.034l.034-.017v-.034l.051-.034v-.034l.034-.017.017-.051h.017v-.034l.034-.017v-.034l.035-.018v-.033l.034-.017.017-.051.051-.034v-.035h.017l.017-.051.034-.017v-.034l.051-.034v-.034l.034-.017.017-.068.051-.034v-.034l.051-.034v-.034l.034-.017v-.034l.051-.034v-.034l.034-.017v-.034h.017l.017-.051.034-.017v-.035l.051-.034V49.4l.034-.017v-.036h.017l.017-.051.034-.017v-.034l.051-.034v-.034h.017l.017-.051.034-.017v-.034l.034-.017.017-.051.051-.034v-.034h.017l.017-.051.034-.017v-.035l.051-.034v-.034h.017l.017-.051.034-.017v-.034l.051-.034V48.6l.034-.017v-.036l.051-.034.017-.051.034-.017.017-.068.051-.034v-.034l.034-.017.017-.051h.017v-.034l.034-.017v-.035l.034-.017V48.1l.034-.017v-.03l.053-.034v-.034l.034-.017v-.034l.051-.034v-.034l.034-.017v-.034l.051-.034v-.034h.017l.013-.047.034-.017v-.038l.051-.034v-.034l.051-.034v-.035h.017l.017-.051.034-.017v-.034l.051-.034v-.034l.034-.017v-.034h.021l.017-.051.034-.017v-.034l.051-.034.017-.068.034-.017v-.034l.051-.032v-.036h.017l.017-.051.034-.017v-.034l.051-.034v-.035h.017l.017-.051.034-.017v-.034l.034-.017.017-.051.048-.034v-.034l.034-.017.017-.051h.017v-.034l.034-.017V46.4l.034-.017v-.032l.034-.017V46.3l.051-.034v-.034l.034-.017v-.034l.051-.034v-.035l.034-.017v-.034h.017l.017-.051.034-.017v-.034l.051-.034v-.034l.034-.017v-.034l.051-.034v-.034l.034-.017v-.034h.022l.017-.051.034-.017v-.034l.051-.034v-.034l.034-.017V45.5l.051-.034v-.035l.034-.017v-.034h.017l.017-.051.034-.017v-.034l.051-.034v-.034h.017l.017-.051.034-.017v-.034l.051-.034v-.034l.034-.017v-.034l.051-.034v-.034l.034-.017v-.034l.051-.034V44.8h.017l.017-.051.034-.017V44.7l.051-.034v-.035l.034-.017.017-.051h.017v-.034l.034-.017v-.034l.034-.017v-.034l.051-.034v-.034l.034-.017v-.034l.034-.017.017-.051.051-.034v-.034l.034-.017v-.035l.034-.017v-.034l.051-.034V44l.051-.034v-.033l.034-.017.017-.051h.017v-.034l.034-.017v-.034h.017l.017-.051.034-.017v-.034l.051-.034v-.034l.034-.017v-.034h.017l.017-.051.034-.017v-.034l.051-.034v-.035h.017l.017-.051.034-.017v-.034l.051-.034v-.034l.034-.017v-.034l.032-.017v-.034h.017a.139.139 0 00.036-.068z" fill-rule="evenodd" fill="url(#a)"/></svg>